<svg width="103" height="202" viewBox="0 0 103 202" fill="none" xmlns="http://www.w3.org/2000/svg">
<path d="M8.704 13H10.624L6.64 1.864H4.528L0.544 13H2.448L3.248 10.728H7.904L8.704 13ZM7.392 9.24H3.76L5.584 4.072L7.392 9.24ZM14.1803 5.496V1.16H12.3563V13H14.1803V11.72C14.7563 12.488 15.7963 13.144 17.2523 13.144C19.5723 13.144 21.3963 11.272 21.3963 8.552C21.3963 5.832 19.5883 4.04 17.2523 4.04C15.8602 4.04 14.7563 4.696 14.1803 5.496ZM19.5403 8.552C19.5403 10.456 18.2283 11.56 16.8523 11.56C15.4923 11.56 14.1803 10.488 14.1803 8.584C14.1803 6.696 15.4923 5.624 16.8523 5.624C18.2283 5.624 19.5403 6.648 19.5403 8.552ZM31.6 8.584C31.6 5.816 29.616 4.04 27.104 4.04C24.592 4.04 22.608 5.816 22.608 8.584C22.608 11.352 24.512 13.144 27.024 13.144C29.552 13.144 31.6 11.352 31.6 8.584ZM24.464 8.584C24.464 6.584 25.696 5.624 27.072 5.624C28.432 5.624 29.728 6.584 29.728 8.584C29.728 10.584 28.384 11.56 27.024 11.56C25.648 11.56 24.464 10.584 24.464 8.584ZM41.3871 4.184H39.5631V9.096C39.5631 10.712 38.6831 11.544 37.3391 11.544C36.0111 11.544 35.1311 10.712 35.1311 9.096V4.184H33.3231V9.368C33.3231 11.832 34.8911 13.128 36.9551 13.128C37.9951 13.128 38.9871 12.696 39.5631 11.944V13H41.3871V4.184ZM44.0818 10.552C44.0818 12.344 45.0578 13 46.6258 13H48.0658V11.48H46.9458C46.1778 11.48 45.9218 11.208 45.9218 10.552V5.672H48.0658V4.184H45.9218V1.992H44.0818V4.184H43.0418V5.672H44.0818V10.552ZM55.7271 7V3.368H57.7431C59.1671 3.368 59.8071 4.04 59.8071 5.192C59.8071 6.312 59.1671 7 57.7431 7H55.7271ZM61.6791 5.192C61.6791 3.384 60.3831 1.88 57.7431 1.88H53.9031V13H55.7271V8.488H57.7431C60.6391 8.488 61.6791 6.776 61.6791 5.192ZM65.2428 8.36C65.2428 6.488 66.0748 5.928 67.4188 5.928H67.8828V4.04C66.6348 4.04 65.7548 4.584 65.2428 5.464V4.184H63.4188V13H65.2428V8.36ZM77.9594 8.584C77.9594 5.816 75.9754 4.04 73.4634 4.04C70.9514 4.04 68.9674 5.816 68.9674 8.584C68.9674 11.352 70.8714 13.144 73.3834 13.144C75.9114 13.144 77.9594 11.352 77.9594 8.584ZM70.8234 8.584C70.8234 6.584 72.0554 5.624 73.4314 5.624C74.7914 5.624 76.0874 6.584 76.0874 8.584C76.0874 10.584 74.7434 11.56 73.3834 11.56C72.0074 11.56 70.8234 10.584 70.8234 8.584ZM86.0185 13H87.8265V7.8C87.8265 5.336 86.2745 4.04 84.2105 4.04C83.1545 4.04 82.1785 4.472 81.5865 5.192V4.184H79.7625V13H81.5865V8.072C81.5865 6.456 82.4665 5.624 83.8105 5.624C85.1385 5.624 86.0185 6.456 86.0185 8.072V13ZM90.1531 13H91.9771V4.184H90.1531V13ZM91.0811 3.016C91.7211 3.016 92.2331 2.504 92.2331 1.848C92.2331 1.192 91.7211 0.679999 91.0811 0.679999C90.4251 0.679999 89.9131 1.192 89.9131 1.848C89.9131 2.504 90.4251 3.016 91.0811 3.016ZM93.7639 8.552C93.7639 11.272 95.6039 13.144 97.8919 13.144C99.3639 13.144 100.42 12.44 100.98 11.688V13H102.82V4.184H100.98V5.464C100.436 4.744 99.4119 4.04 97.9239 4.04C95.6039 4.04 93.7639 5.832 93.7639 8.552ZM100.98 8.584C100.98 10.488 99.6839 11.56 98.3079 11.56C96.9479 11.56 95.6359 10.456 95.6359 8.552C95.6359 6.648 96.9479 5.624 98.3079 5.624C99.6839 5.624 100.98 6.696 100.98 8.584ZM8.256 59H10.08V47.88H8.256V52.648H3.024V47.88H1.2V59H3.024V54.136H8.256V59ZM20.8813 54.584C20.8813 51.816 18.8973 50.04 16.3853 50.04C13.8733 50.04 11.8893 51.816 11.8893 54.584C11.8893 57.352 13.7933 59.144 16.3053 59.144C18.8333 59.144 20.8813 57.352 20.8813 54.584ZM13.7453 54.584C13.7453 52.584 14.9773 51.624 16.3533 51.624C17.7133 51.624 19.0093 52.584 19.0093 54.584C19.0093 56.584 17.6653 57.56 16.3053 57.56C14.9293 57.56 13.7453 56.584 13.7453 54.584ZM24.3964 59H26.3164L28.0924 52.488L29.8684 59H31.7884L34.5244 50.184H32.7324L30.9084 57.24L29.1164 50.184H27.2124L25.3404 57.272L23.5004 50.184H21.6444L24.3964 59ZM40.3318 56.552C40.3318 58.344 41.3078 59 42.8758 59H44.3158V57.48H43.1958C42.4278 57.48 42.1718 57.208 42.1718 56.552V51.672H44.3158V50.184H42.1718V47.992H40.3318V50.184H39.2918V51.672H40.3318V56.552ZM54.3969 54.584C54.3969 51.816 52.4129 50.04 49.9009 50.04C47.3889 50.04 45.4049 51.816 45.4049 54.584C45.4049 57.352 47.3089 59.144 49.8209 59.144C52.3489 59.144 54.3969 57.352 54.3969 54.584ZM47.2609 54.584C47.2609 52.584 48.4929 51.624 49.8689 51.624C51.2289 51.624 52.5249 52.584 52.5249 54.584C52.5249 56.584 51.1809 57.56 49.8209 57.56C48.4449 57.56 47.2609 56.584 47.2609 54.584ZM66.9323 56.536C66.8363 53.352 61.8603 54.344 61.8603 52.568C61.8603 51.976 62.3723 51.576 63.3483 51.576C64.3403 51.576 64.9323 52.104 64.9963 52.872H66.8203C66.7243 51.112 65.4123 50.04 63.4123 50.04C61.3323 50.04 60.0203 51.176 60.0203 52.584C60.0203 55.816 65.1403 54.824 65.1403 56.552C65.1403 57.16 64.5803 57.608 63.5243 57.608C62.5163 57.608 61.8283 57.016 61.7643 56.296H59.8763C59.9563 57.896 61.4443 59.144 63.5563 59.144C65.6363 59.144 66.9323 58.024 66.9323 56.536ZM68.9031 59H70.7271V54.072C70.7271 52.456 71.6071 51.624 72.9511 51.624C74.2791 51.624 75.1591 52.456 75.1591 54.072V59H76.9671V53.8C76.9671 51.336 75.4311 50.04 73.4631 50.04C72.3271 50.04 71.3351 50.472 70.7271 51.208V47.16H68.9031V59ZM87.6938 54.584C87.6938 51.816 85.7098 50.04 83.1978 50.04C80.6858 50.04 78.7018 51.816 78.7018 54.584C78.7018 57.352 80.6058 59.144 83.1178 59.144C85.6458 59.144 87.6938 57.352 87.6938 54.584ZM80.5578 54.584C80.5578 52.584 81.7898 51.624 83.1658 51.624C84.5258 51.624 85.8218 52.584 85.8218 54.584C85.8218 56.584 84.4778 57.56 83.1178 57.56C81.7418 57.56 80.5578 56.584 80.5578 54.584ZM91.3209 51.48V50.184H89.4969V63.192H91.3209V57.72C91.8969 58.408 92.9369 59.144 94.3929 59.144C96.7129 59.144 98.5369 57.272 98.5369 54.552C98.5369 51.832 96.7129 50.04 94.3929 50.04C92.9529 50.04 91.8809 50.744 91.3209 51.48ZM96.6809 54.552C96.6809 56.456 95.3689 57.56 93.9929 57.56C92.6329 57.56 91.3209 56.488 91.3209 54.584C91.3209 52.696 92.6329 51.624 93.9929 51.624C95.3689 51.624 96.6809 52.648 96.6809 54.552ZM1.2 105H3.024V100.136H6.704V98.648H3.024V95.368H7.744V93.88H1.2V105ZM16.9384 105H18.8584L14.8744 93.864H12.7624L8.77838 105H10.6824L11.4824 102.728H16.1384L16.9384 105ZM15.6264 101.24H11.9944L13.8184 96.072L15.6264 101.24ZM21.8546 99.416C21.8546 96.904 23.4546 95.336 25.6626 95.336C27.8706 95.336 29.4706 96.904 29.4706 99.416C29.4706 101.928 27.8706 103.528 25.6626 103.528C23.4546 103.528 21.8546 101.928 21.8546 99.416ZM31.3426 99.416C31.3426 96.088 28.8306 93.736 25.6626 93.736C22.5266 93.736 19.9826 96.088 19.9826 99.416C19.9826 102.76 22.5266 105.112 25.6626 105.112C26.2226 105.112 26.7506 105.048 27.2466 104.904L29.1986 107.016H31.5186L28.8466 104.184C30.3666 103.208 31.3426 101.512 31.3426 99.416ZM0.592 145.416C0.592 148.76 3.136 151.096 6.272 151.096C8.592 151.096 10.592 149.944 11.44 147.768H9.248C8.656 148.952 7.6 149.512 6.272 149.512C4.064 149.512 2.464 147.928 2.464 145.416C2.464 142.904 4.064 141.336 6.272 141.336C7.6 141.336 8.656 141.896 9.248 143.08H11.44C10.592 140.904 8.592 139.736 6.272 139.736C3.136 139.736 0.592 142.088 0.592 145.416ZM21.975 146.584C21.975 143.816 19.991 142.04 17.479 142.04C14.967 142.04 12.983 143.816 12.983 146.584C12.983 149.352 14.887 151.144 17.399 151.144C19.927 151.144 21.975 149.352 21.975 146.584ZM14.839 146.584C14.839 144.584 16.071 143.624 17.447 143.624C18.807 143.624 20.103 144.584 20.103 146.584C20.103 148.584 18.759 149.56 17.399 149.56C16.023 149.56 14.839 148.584 14.839 146.584ZM30.0341 151H31.8421V145.8C31.8421 143.336 30.2901 142.04 28.2261 142.04C27.1701 142.04 26.1941 142.472 25.6021 143.192V142.184H23.7781V151H25.6021V146.072C25.6021 144.456 26.4821 143.624 27.8261 143.624C29.1541 143.624 30.0341 144.456 30.0341 146.072V151ZM34.4568 148.552C34.4568 150.344 35.4328 151 37.0008 151H38.4408V149.48H37.3208C36.5528 149.48 36.2968 149.208 36.2968 148.552V143.672H38.4408V142.184H36.2968V139.992H34.4568V142.184H33.4168V143.672H34.4568V148.552ZM39.5139 146.552C39.5139 149.272 41.3539 151.144 43.6419 151.144C45.1139 151.144 46.1699 150.44 46.7299 149.688V151H48.5699V142.184H46.7299V143.464C46.1859 142.744 45.1619 142.04 43.6739 142.04C41.3539 142.04 39.5139 143.832 39.5139 146.552ZM46.7299 146.584C46.7299 148.488 45.4339 149.56 44.0579 149.56C42.6979 149.56 41.3859 148.456 41.3859 146.552C41.3859 144.648 42.6979 143.624 44.0579 143.624C45.4339 143.624 46.7299 144.696 46.7299 146.584ZM50.3576 146.584C50.3576 149.352 52.1496 151.144 54.6776 151.144C56.8376 151.144 58.2456 149.944 58.7416 148.216H56.7736C56.4376 149.128 55.7656 149.608 54.6776 149.608C53.2056 149.608 52.2296 148.52 52.2296 146.584C52.2296 144.664 53.2056 143.576 54.6776 143.576C55.7656 143.576 56.4696 144.12 56.7736 144.968H58.7416C58.2456 143.112 56.8376 142.04 54.6776 142.04C52.1496 142.04 50.3576 143.832 50.3576 146.584ZM60.8474 148.552C60.8474 150.344 61.8234 151 63.3914 151H64.8314V149.48H63.7114C62.9434 149.48 62.6874 149.208 62.6874 148.552V143.672H64.8314V142.184H62.6874V139.992H60.8474V142.184H59.8074V143.672H60.8474V148.552ZM78.6528 142.184H76.8288V147.096C76.8288 148.712 75.9488 149.544 74.6048 149.544C73.2768 149.544 72.3968 148.712 72.3968 147.096V142.184H70.5888V147.368C70.5888 149.832 72.1568 151.128 74.2208 151.128C75.2608 151.128 76.2528 150.696 76.8288 149.944V151H78.6528V142.184ZM87.6354 148.536C87.5394 145.352 82.5634 146.344 82.5634 144.568C82.5634 143.976 83.0754 143.576 84.0514 143.576C85.0434 143.576 85.6354 144.104 85.6994 144.872H87.5234C87.4274 143.112 86.1154 142.04 84.1154 142.04C82.0354 142.04 80.7234 143.176 80.7234 144.584C80.7234 147.816 85.8434 146.824 85.8434 148.552C85.8434 149.16 85.2834 149.608 84.2274 149.608C83.2194 149.608 82.5314 149.016 82.4674 148.296H80.5794C80.6594 149.896 82.1474 151.144 84.2594 151.144C86.3394 151.144 87.6354 150.024 87.6354 148.536ZM1.2 185.88V197H6.784V195.528H3.024V185.88H1.2ZM16.7094 192.584C16.7094 189.816 14.7254 188.04 12.2134 188.04C9.70138 188.04 7.71738 189.816 7.71738 192.584C7.71738 195.352 9.62138 197.144 12.1334 197.144C14.6614 197.144 16.7094 195.352 16.7094 192.584ZM9.57338 192.584C9.57338 190.584 10.8054 189.624 12.1814 189.624C13.5414 189.624 14.8374 190.584 14.8374 192.584C14.8374 194.584 13.4934 195.56 12.1334 195.56C10.7574 195.56 9.57338 194.584 9.57338 192.584ZM17.9045 192.552C17.9045 195.272 19.7445 197.144 22.0645 197.144C23.5045 197.144 24.5605 196.424 25.1205 195.672V197.144C25.1205 198.904 24.0645 199.768 22.6565 199.768C21.3925 199.768 20.4165 199.144 20.1445 198.232H18.3365C18.5605 200.184 20.3045 201.352 22.6565 201.352C25.4085 201.352 26.9605 199.544 26.9605 197.144V188.184H25.1205V189.464C24.5765 188.712 23.5045 188.04 22.0645 188.04C19.7445 188.04 17.9045 189.832 17.9045 192.552ZM25.1205 192.584C25.1205 194.488 23.8245 195.56 22.4485 195.56C21.0885 195.56 19.7765 194.456 19.7765 192.552C19.7765 190.648 21.0885 189.624 22.4485 189.624C23.8245 189.624 25.1205 190.696 25.1205 192.584ZM33.5125 197H35.3365V188.184H33.5125V197ZM34.4405 187.016C35.0805 187.016 35.5925 186.504 35.5925 185.848C35.5925 185.192 35.0805 184.68 34.4405 184.68C33.7845 184.68 33.2725 185.192 33.2725 185.848C33.2725 186.504 33.7845 187.016 34.4405 187.016ZM43.9873 197H45.7953V191.8C45.7953 189.336 44.2433 188.04 42.1793 188.04C41.1233 188.04 40.1473 188.472 39.5553 189.192V188.184H37.7313V197H39.5553V192.072C39.5553 190.456 40.4353 189.624 41.7793 189.624C43.1073 189.624 43.9873 190.456 43.9873 192.072V197Z" fill="#666666"/>
</svg>
