<svg width="80" height="80" viewBox="0 0 80 80" fill="none" xmlns="http://www.w3.org/2000/svg">
<g id="Group 1000002940">
<g id="Ellipse 1197" filter="url(#filter0_d_1_278)">
<circle cx="40" cy="30" r="20" fill="#05A42C"/>
</g>
<g id="Iconly/Light-Outline/Arrow---Right">
<g id="Arrow---Right">
<path id="Combined-Shape" d="M33.0001 30.1364C33.0001 29.7924 33.2556 29.5082 33.5872 29.4632L33.6794 29.457L45.6215 29.4576L41.3072 25.1609C41.0413 24.8961 41.0404 24.466 41.3051 24.2001C41.5458 23.9584 41.9232 23.9357 42.1895 24.1324L42.2659 24.198L47.746 29.6546C47.781 29.6895 47.8115 29.7273 47.8373 29.7671C47.8446 29.7792 47.852 29.7914 47.8591 29.804C47.8655 29.8147 47.8714 29.8259 47.8769 29.8371C47.8846 29.8535 47.8921 29.8705 47.8989 29.8878C47.9044 29.9011 47.909 29.9141 47.9132 29.9271C47.9182 29.9433 47.9231 29.9606 47.9273 29.9782C47.9304 29.9904 47.9329 30.0022 47.935 30.014C47.938 30.0316 47.9406 30.0498 47.9424 30.0683C47.944 30.0823 47.945 30.0962 47.9455 30.1102C47.9456 30.1186 47.9458 30.1275 47.9458 30.1364L47.9455 30.1627C47.945 30.176 47.944 30.1893 47.9427 30.2026L47.9458 30.1364C47.9458 30.1792 47.9418 30.2212 47.9342 30.2619C47.9325 30.2716 47.9304 30.2815 47.9281 30.2915C47.9232 30.3119 47.9177 30.3316 47.9112 30.3509C47.9081 30.3605 47.9044 30.3708 47.9005 30.3809C47.8926 30.4014 47.8839 30.4209 47.8744 30.4398C47.87 30.4488 47.8651 30.4581 47.8599 30.4674C47.8514 30.4824 47.8427 30.4968 47.8334 30.5108C47.8269 30.5207 47.8197 30.531 47.8121 30.5411L47.8063 30.5489C47.7879 30.5728 47.7681 30.5955 47.7468 30.6167L47.746 30.6174L42.2659 36.0748C42.0001 36.3396 41.5699 36.3387 41.3052 36.0729C41.0645 35.8312 41.0433 35.4537 41.2412 35.1882L41.3072 35.1121L45.6197 30.8163L33.6794 30.8157C33.3042 30.8157 33.0001 30.5116 33.0001 30.1364Z" fill="white"/>
</g>
</g>
</g>
<defs>
<filter id="filter0_d_1_278" x="0" y="0" width="80" height="80" filterUnits="userSpaceOnUse" color-interpolation-filters="sRGB">
<feFlood flood-opacity="0" result="BackgroundImageFix"/>
<feColorMatrix in="SourceAlpha" type="matrix" values="0 0 0 0 0 0 0 0 0 0 0 0 0 0 0 0 0 0 127 0" result="hardAlpha"/>
<feOffset dy="10"/>
<feGaussianBlur stdDeviation="10"/>
<feComposite in2="hardAlpha" operator="out"/>
<feColorMatrix type="matrix" values="0 0 0 0 0.0146006 0 0 0 0 0.329451 0 0 0 0 0.091828 0 0 0 0.2 0"/>
<feBlend mode="normal" in2="BackgroundImageFix" result="effect1_dropShadow_1_278"/>
<feBlend mode="normal" in="SourceGraphic" in2="effect1_dropShadow_1_278" result="shape"/>
</filter>
</defs>
</svg>
