<svg width="80" height="140" viewBox="0 0 80 140" fill="none" xmlns="http://www.w3.org/2000/svg">
<g id="Group 1000002892">
<g id="Group 1000002849">
<g id="Ellipse 1197" filter="url(#filter0_d_1_48)">
<circle cx="40" cy="30" r="20" fill="#05A42C"/>
</g>
<g id="Iconly/Light-Outline/Arrow---Right">
<g id="Arrow---Right">
<path id="Combined-Shape" d="M33.0001 30.1364C33.0001 29.7924 33.2556 29.5082 33.5872 29.4632L33.6794 29.457L45.6215 29.4576L41.3072 25.1609C41.0413 24.8961 41.0404 24.466 41.3051 24.2001C41.5458 23.9584 41.9232 23.9357 42.1895 24.1324L42.2659 24.198L47.746 29.6546C47.781 29.6895 47.8115 29.7273 47.8373 29.7671C47.8446 29.7792 47.852 29.7914 47.8591 29.804C47.8655 29.8147 47.8714 29.8259 47.8769 29.8371C47.8846 29.8535 47.8921 29.8705 47.8989 29.8878C47.9044 29.9011 47.909 29.9141 47.9132 29.9271C47.9182 29.9433 47.9231 29.9606 47.9273 29.9782C47.9304 29.9904 47.9329 30.0022 47.935 30.014C47.938 30.0316 47.9406 30.0498 47.9424 30.0683C47.944 30.0823 47.945 30.0962 47.9455 30.1102C47.9456 30.1186 47.9458 30.1275 47.9458 30.1364L47.9455 30.1627C47.945 30.176 47.944 30.1893 47.9427 30.2026L47.9458 30.1364C47.9458 30.1792 47.9418 30.2212 47.9342 30.2619C47.9325 30.2716 47.9304 30.2815 47.9281 30.2915C47.9232 30.3119 47.9177 30.3316 47.9112 30.3509C47.9081 30.3605 47.9044 30.3708 47.9005 30.3809C47.8926 30.4014 47.8839 30.4209 47.8744 30.4398C47.87 30.4488 47.8651 30.4581 47.8599 30.4674C47.8514 30.4824 47.8427 30.4968 47.8334 30.5108C47.8269 30.5207 47.8197 30.531 47.8121 30.5411L47.8063 30.5489C47.7879 30.5728 47.7681 30.5955 47.7468 30.6167L47.746 30.6174L42.2659 36.0748C42.0001 36.3396 41.5699 36.3387 41.3052 36.0729C41.0645 35.8312 41.0433 35.4537 41.2412 35.1882L41.3072 35.1121L45.6197 30.8163L33.6794 30.8157C33.3042 30.8157 33.0001 30.5116 33.0001 30.1364Z" fill="white"/>
</g>
</g>
</g>
<g id="Group 1000002850">
<g id="Ellipse 1197_2" filter="url(#filter1_d_1_48)">
<circle cx="20" cy="20" r="20" transform="matrix(-1 0 0 1 60 70)" fill="white"/>
<circle cx="20" cy="20" r="19.5" transform="matrix(-1 0 0 1 60 70)" stroke="#05A42C"/>
</g>
<g id="Iconly/Light-Outline/Arrow---Right_2">
<g id="Arrow---Right_2">
<path id="Combined-Shape_2" d="M48 90.1364C48 89.7924 47.7444 89.5082 47.4128 89.4632L47.3206 89.457L35.3785 89.4576L39.6929 85.1609C39.9587 84.8961 39.9597 84.466 39.6949 84.2001C39.4543 83.9584 39.0769 83.9357 38.8105 84.1324L38.7342 84.198L33.2541 89.6546C33.219 89.6895 33.1886 89.7273 33.1628 89.7671C33.1555 89.7792 33.148 89.7914 33.141 89.804C33.1345 89.8147 33.1287 89.8259 33.1231 89.8371C33.1155 89.8535 33.108 89.8705 33.1012 89.8878C33.0956 89.9011 33.091 89.9141 33.0868 89.9271C33.0818 89.9433 33.077 89.9606 33.0728 89.9782C33.0697 89.9904 33.0672 90.0022 33.065 90.014C33.062 90.0316 33.0595 90.0498 33.0576 90.0683C33.056 90.0823 33.0551 90.0962 33.0546 90.1102C33.0544 90.1186 33.0542 90.1275 33.0542 90.1364L33.0546 90.1627C33.0551 90.176 33.056 90.1893 33.0573 90.2026L33.0542 90.1364C33.0542 90.1792 33.0582 90.2212 33.0658 90.2619C33.0676 90.2716 33.0697 90.2815 33.072 90.2915C33.0768 90.3119 33.0824 90.3316 33.0888 90.3509C33.092 90.3605 33.0956 90.3708 33.0996 90.3809C33.1075 90.4014 33.1161 90.4209 33.1256 90.4398C33.13 90.4488 33.135 90.4581 33.1402 90.4674C33.1486 90.4824 33.1574 90.4968 33.1666 90.5108C33.1732 90.5207 33.1804 90.531 33.1879 90.5411L33.1938 90.5489C33.2121 90.5728 33.232 90.5955 33.2532 90.6167L33.254 90.6174L38.7341 96.0748C39 96.3396 39.4301 96.3387 39.6949 96.0729C39.9356 95.8312 39.9567 95.4537 39.7588 95.1882L39.6929 95.1121L35.3804 90.8163L47.3206 90.8157C47.6958 90.8157 48 90.5116 48 90.1364Z" fill="#05A42C"/>
</g>
</g>
</g>
</g>
<defs>
<filter id="filter0_d_1_48" x="0" y="0" width="80" height="80" filterUnits="userSpaceOnUse" color-interpolation-filters="sRGB">
<feFlood flood-opacity="0" result="BackgroundImageFix"/>
<feColorMatrix in="SourceAlpha" type="matrix" values="0 0 0 0 0 0 0 0 0 0 0 0 0 0 0 0 0 0 127 0" result="hardAlpha"/>
<feOffset dy="10"/>
<feGaussianBlur stdDeviation="10"/>
<feComposite in2="hardAlpha" operator="out"/>
<feColorMatrix type="matrix" values="0 0 0 0 0.0146006 0 0 0 0 0.329451 0 0 0 0 0.091828 0 0 0 0.2 0"/>
<feBlend mode="normal" in2="BackgroundImageFix" result="effect1_dropShadow_1_48"/>
<feBlend mode="normal" in="SourceGraphic" in2="effect1_dropShadow_1_48" result="shape"/>
</filter>
<filter id="filter1_d_1_48" x="0" y="60" width="80" height="80" filterUnits="userSpaceOnUse" color-interpolation-filters="sRGB">
<feFlood flood-opacity="0" result="BackgroundImageFix"/>
<feColorMatrix in="SourceAlpha" type="matrix" values="0 0 0 0 0 0 0 0 0 0 0 0 0 0 0 0 0 0 127 0" result="hardAlpha"/>
<feOffset dy="10"/>
<feGaussianBlur stdDeviation="10"/>
<feComposite in2="hardAlpha" operator="out"/>
<feColorMatrix type="matrix" values="0 0 0 0 0.0156863 0 0 0 0 0.329412 0 0 0 0 0.0901961 0 0 0 0.2 0"/>
<feBlend mode="normal" in2="BackgroundImageFix" result="effect1_dropShadow_1_48"/>
<feBlend mode="normal" in="SourceGraphic" in2="effect1_dropShadow_1_48" result="shape"/>
</filter>
</defs>
</svg>
