<svg width="50" height="44" viewBox="0 0 50 44" fill="none" xmlns="http://www.w3.org/2000/svg">
<g id="Group 1000002900">
<g id="Group 1000002899">
<path id="Vector" d="M33.3609 34.8403H13.5139C12.9629 34.8403 12.4344 34.6214 12.0447 34.2317C11.655 33.8421 11.4361 33.3136 11.4361 32.7625C11.4361 32.2115 11.655 31.683 12.0447 31.2933C12.4344 30.9036 12.9629 30.6847 13.5139 30.6847H33.3609C33.912 30.6847 34.4405 30.9036 34.8301 31.2933C35.2198 31.683 35.4387 32.2115 35.4387 32.7625C35.4387 33.3136 35.2198 33.8421 34.8301 34.2317C34.4405 34.6214 33.912 34.8403 33.3609 34.8403ZM44.7971 34.8403H44.2984C43.7473 34.8403 43.2188 34.6214 42.8292 34.2317C42.4395 33.8421 42.2206 33.3136 42.2206 32.7625C42.2206 32.2115 42.4395 31.683 42.8292 31.2933C43.2188 30.9036 43.7473 30.6847 44.2984 30.6847H44.7971C44.9338 30.6869 45.0696 30.6619 45.1966 30.6111C45.3235 30.5603 45.4391 30.4847 45.5366 30.3888C45.634 30.2929 45.7114 30.1786 45.7643 30.0524C45.8171 29.9263 45.8443 29.7909 45.8443 29.6542V22.5232C45.8436 22.2894 45.7646 22.0625 45.62 21.8787C45.4754 21.695 45.2735 21.5649 45.0464 21.5092H32.7958C31.4188 21.5092 30.098 20.9634 29.1227 19.9913C28.1475 19.0191 27.5974 17.7001 27.593 16.3231V5.18615C27.5952 5.0502 27.5701 4.91517 27.5191 4.78912C27.4681 4.66307 27.3923 4.54856 27.2962 4.45241C27.2 4.35627 27.0855 4.28044 26.9594 4.22944C26.8334 4.17845 26.6984 4.15332 26.5624 4.15557H2.07779C1.52672 4.15557 0.99823 3.93666 0.608569 3.547C0.218909 3.15734 0 2.62885 0 2.07779C0 1.52672 0.218909 0.99823 0.608569 0.608569C0.99823 0.218909 1.52672 0 2.07779 0H26.5624C27.2435 0 27.9179 0.134144 28.5471 0.394772C29.1763 0.655401 29.748 1.03741 30.2296 1.51899C30.7112 2.00057 31.0932 2.57229 31.3538 3.2015C31.6144 3.83071 31.7486 4.5051 31.7486 5.18615V16.2898C31.7486 16.4266 31.7757 16.562 31.8286 16.6881C31.8814 16.8142 31.9588 16.9286 32.0563 17.0245C32.1537 17.1204 32.2693 17.196 32.3963 17.2468C32.5232 17.2976 32.659 17.3226 32.7958 17.3204H44.7971C45.1766 17.3253 45.5548 17.3643 45.9274 17.4368L46.2931 17.5531C47.3694 17.8678 48.3136 18.525 48.9826 19.4249C49.6516 20.3249 50.0087 21.4185 49.9998 22.5398V29.6708C49.9911 31.0449 49.439 32.3597 48.4643 33.3282C47.4895 34.2968 46.1712 34.8403 44.7971 34.8403Z" fill="#05A42C"/>
<path id="Vector_2" d="M45.5118 21.5757C45.0846 21.5756 44.668 21.4428 44.3196 21.1957C43.9712 20.9485 43.7082 20.5992 43.567 20.1961L40.2425 10.9541C40.1531 10.8294 40.036 10.727 39.9005 10.6549C39.765 10.5828 39.6147 10.543 39.4613 10.5385H29.6375C29.0865 10.5385 28.558 10.3196 28.1683 9.92994C27.7786 9.54028 27.5597 9.01178 27.5597 8.46072C27.5597 7.90966 27.7786 7.38116 28.1683 6.9915C28.558 6.60184 29.0865 6.38293 29.6375 6.38293H39.4613C40.3824 6.38652 41.2855 6.63856 42.0754 7.11249C42.8653 7.58641 43.5127 8.26466 43.9493 9.07575C44.0005 9.17228 44.0449 9.27225 44.0823 9.37495L47.4067 18.7998C47.5885 19.3201 47.5578 19.8911 47.3213 20.389C47.0848 20.8869 46.6616 21.2715 46.1434 21.4593C45.9386 21.5245 45.7264 21.5636 45.5118 21.5757ZM38.8296 43.7166C37.3338 43.7166 35.8715 43.273 34.6278 42.442C33.384 41.6109 32.4146 40.4297 31.8422 39.0477C31.2698 37.6658 31.12 36.1451 31.4118 34.6779C31.7037 33.2108 32.424 31.8632 33.4817 30.8055C34.5394 29.7478 35.887 29.0275 37.3541 28.7356C38.8213 28.4438 40.3419 28.5936 41.7239 29.166C43.1059 29.7385 44.2871 30.7078 45.1182 31.9516C45.9492 33.1953 46.3928 34.6576 46.3928 36.1534C46.3928 38.1593 45.596 40.083 44.1776 41.5014C42.7592 42.9198 40.8355 43.7166 38.8296 43.7166ZM38.8296 32.7459C38.1524 32.7294 37.4856 32.9151 36.9144 33.2793C36.3432 33.6436 35.8935 34.1698 35.6228 34.7908C35.3521 35.4118 35.2727 36.0994 35.3946 36.7658C35.5166 37.4322 35.8344 38.0471 36.3075 38.532C36.7805 39.0169 37.3874 39.3498 38.0506 39.4882C38.7138 39.6265 39.4031 39.5641 40.0306 39.3088C40.6581 39.0535 41.1953 38.617 41.5735 38.0549C41.9518 37.4929 42.1539 36.8309 42.1541 36.1534C42.1544 35.2639 41.8068 34.4096 41.1856 33.7728C40.5644 33.1361 39.7189 32.7676 38.8296 32.7459ZM8.02855 43.7166C6.5327 43.7166 5.07044 43.273 3.82669 42.442C2.58294 41.6109 1.61355 40.4297 1.04112 39.0477C0.46868 37.6658 0.318904 36.1451 0.61073 34.6779C0.902555 33.2108 1.62287 31.8632 2.6806 30.8055C3.73832 29.7478 5.08595 29.0275 6.55305 28.7356C8.02016 28.4438 9.54085 28.5936 10.9228 29.166C12.3048 29.7385 13.486 30.7078 14.3171 31.9516C15.1481 33.1953 15.5917 34.6576 15.5917 36.1534C15.5917 38.1593 14.7949 40.083 13.3765 41.5014C11.9581 42.9198 10.0344 43.7166 8.02855 43.7166ZM8.02855 32.7459C7.35459 32.7459 6.69578 32.9457 6.1354 33.3202C5.57503 33.6946 5.13827 34.2268 4.88036 34.8494C4.62245 35.4721 4.55497 36.1572 4.68645 36.8182C4.81794 37.4792 5.14247 38.0864 5.61903 38.563C6.09559 39.0395 6.70276 39.3641 7.36376 39.4955C8.02477 39.627 8.70992 39.5595 9.33257 39.3016C9.95522 39.0437 10.4874 38.607 10.8618 38.0466C11.2363 37.4862 11.4361 36.8274 11.4361 36.1534C11.4361 35.2497 11.0771 34.383 10.4381 33.7439C9.79902 33.1049 8.93229 32.7459 8.02855 32.7459Z" fill="#05A42C"/>
</g>
<path id="Vector_3" d="M42.7193 34.8404C42.4458 34.8426 42.1746 34.7904 41.9215 34.6868C41.6685 34.5831 41.4385 34.4302 41.2451 34.2368C41.0518 34.0434 40.8988 33.8135 40.7952 33.5604C40.6915 33.3073 40.6393 33.0361 40.6415 32.7626V14.5945C40.6415 14.0434 40.8604 13.5149 41.2501 13.1252C41.6397 12.7356 42.1682 12.5167 42.7193 12.5167C43.2703 12.5167 43.7988 12.7356 44.1885 13.1252C44.5782 13.5149 44.7971 14.0434 44.7971 14.5945V32.7626C44.7993 33.0361 44.7471 33.3073 44.6434 33.5604C44.5398 33.8135 44.3868 34.0434 44.1934 34.2368C44.0001 34.4302 43.7701 34.5831 43.517 34.6868C43.2639 34.7904 42.9928 34.8426 42.7193 34.8404ZM21.4261 14.6609H7.81249C7.26143 14.6609 6.73293 14.442 6.34327 14.0524C5.95361 13.6627 5.7347 13.1342 5.7347 12.5832C5.7347 12.0321 5.95361 11.5036 6.34327 11.1139C6.73293 10.7243 7.26143 10.5054 7.81249 10.5054H21.4261C21.9772 10.5054 22.5057 10.7243 22.8954 11.1139C23.285 11.5036 23.5039 12.0321 23.5039 12.5832C23.5039 13.1342 23.285 13.6627 22.8954 14.0524C22.5057 14.442 21.9772 14.6609 21.4261 14.6609ZM23.986 23.9362H16.8716C16.3206 23.9362 15.7921 23.7173 15.4024 23.3276C15.0128 22.938 14.7938 22.4095 14.7938 21.8584C14.7938 21.3073 15.0128 20.7788 15.4024 20.3892C15.7921 19.9995 16.3206 19.7806 16.8716 19.7806H23.986C24.537 19.7806 25.0655 19.9995 25.4552 20.3892C25.8448 20.7788 26.0638 21.3073 26.0638 21.8584C26.0638 22.4095 25.8448 22.938 25.4552 23.3276C25.0655 23.7173 24.537 23.9362 23.986 23.9362Z" fill="#05A42C"/>
</g>
</svg>
