<svg width="211" height="40" viewBox="0 0 211 40" fill="none" xmlns="http://www.w3.org/2000/svg">
<g id="Group 1000002936">
<path id="Star 1" d="M20.4388 3.74892C20.7753 2.83574 22.0855 2.89246 22.3418 3.83129L24.9932 13.5427C25.1077 13.9622 25.4802 14.2596 25.9146 14.2784L35.8678 14.7092C36.832 14.751 37.1835 15.9993 36.3828 16.538L28.0469 22.146C27.691 22.3855 27.5274 22.8253 27.6404 23.2391L30.3034 32.9931C30.5589 33.929 29.466 34.6439 28.7109 34.0348L20.9463 27.7723C20.605 27.497 20.1242 27.4762 19.7603 27.7209L11.4837 33.2892C10.6788 33.8307 9.65176 33.024 9.98718 32.1137L13.483 22.6263C13.6313 22.2238 13.5064 21.7715 13.1725 21.5022L5.3524 15.1949C4.6012 14.589 5.05926 13.3757 6.02344 13.4174L15.9766 13.8482C16.4111 13.8671 16.8079 13.603 16.9582 13.1949L20.4388 3.74892Z" fill="#05A42C"/>
<path id="Star 2" d="M62.9222 3.74892C63.2587 2.83574 64.5689 2.89246 64.8252 3.83129L67.4766 13.5427C67.5911 13.9622 67.9636 14.2596 68.398 14.2784L78.3512 14.7092C79.3154 14.751 79.6669 15.9993 78.8662 16.538L70.5303 22.146C70.1744 22.3855 70.0108 22.8253 70.1238 23.2391L72.7868 32.9931C73.0423 33.929 71.9494 34.6439 71.1943 34.0348L63.4297 27.7723C63.0884 27.497 62.6076 27.4762 62.2437 27.7209L53.9671 33.2892C53.1622 33.8307 52.1352 33.024 52.4706 32.1137L55.9664 22.6263C56.1147 22.2238 55.9898 21.7715 55.6559 21.5022L47.8358 15.1949C47.0846 14.589 47.5427 13.3757 48.5068 13.4174L58.46 13.8482C58.8945 13.8671 59.2913 13.603 59.4416 13.1949L62.9222 3.74892Z" fill="#05A42C"/>
<path id="Star 3" d="M105.406 3.74892C105.743 2.83574 107.053 2.89246 107.309 3.83129L109.96 13.5427C110.075 13.9622 110.447 14.2596 110.882 14.2784L120.835 14.7092C121.799 14.751 122.151 15.9993 121.35 16.538L113.014 22.146C112.658 22.3855 112.495 22.8253 112.608 23.2391L115.271 32.9931C115.526 33.929 114.433 34.6439 113.678 34.0348L105.914 27.7723C105.572 27.497 105.091 27.4762 104.728 27.7209L96.451 33.2892C95.6461 33.8307 94.619 33.024 94.9545 32.1137L98.4503 22.6263C98.5986 22.2238 98.4737 21.7715 98.1398 21.5022L90.3197 15.1949C89.5685 14.589 90.0265 13.3757 90.9907 13.4174L100.944 13.8482C101.378 13.8671 101.775 13.603 101.925 13.1949L105.406 3.74892Z" fill="#05A42C"/>
<path id="Star 4" d="M147.889 3.74892C148.226 2.83574 149.536 2.89246 149.792 3.83129L152.444 13.5427C152.558 13.9622 152.931 14.2596 153.365 14.2784L163.318 14.7092C164.283 14.751 164.634 15.9993 163.833 16.538L155.498 22.146C155.142 22.3855 154.978 22.8253 155.091 23.2391L157.754 32.9931C158.01 33.929 156.917 34.6439 156.162 34.0348L148.397 27.7723C148.056 27.497 147.575 27.4762 147.211 27.7209L138.934 33.2892C138.129 33.8307 137.102 33.024 137.438 32.1137L140.934 22.6263C141.082 22.2238 140.957 21.7715 140.623 21.5022L132.803 15.1949C132.052 14.589 132.51 13.3757 133.474 13.4174L143.427 13.8482C143.862 13.8671 144.259 13.603 144.409 13.1949L147.889 3.74892Z" fill="#05A42C"/>
<path id="Star 5" d="M190.373 3.74892C190.709 2.83574 192.02 2.89246 192.276 3.83129L194.927 13.5427C195.042 13.9622 195.414 14.2596 195.849 14.2784L205.802 14.7092C206.766 14.751 207.118 15.9993 206.317 16.538L197.981 22.146C197.625 22.3855 197.462 22.8253 197.575 23.2391L200.237 32.9931C200.493 33.929 199.4 34.6439 198.645 34.0348L190.88 27.7723C190.539 27.497 190.058 27.4762 189.694 27.7209L181.418 33.2892C180.613 33.8307 179.586 33.024 179.921 32.1137L183.417 22.6263C183.565 22.2238 183.44 21.7715 183.107 21.5022L175.286 15.1949C174.535 14.589 174.993 13.3757 175.958 13.4174L185.911 13.8482C186.345 13.8671 186.742 13.603 186.892 13.1949L190.373 3.74892Z" fill="#05A42C"/>
</g>
</svg>
