<svg width="104" height="19" viewBox="0 0 104 19" fill="none" xmlns="http://www.w3.org/2000/svg">
<g id="Group 1000002841">
<path id="Vector" d="M17.32 7.77427C17.4066 7.32009 17.0602 6.77507 16.6272 6.77507L11.691 6.04838L9.43938 1.32488C9.35279 1.14321 9.26619 1.05237 9.09299 0.961534C8.65999 0.689024 8.14039 0.870697 7.88059 1.32488L5.71559 6.04838L0.779399 6.77507C0.519599 6.77507 0.346399 6.8659 0.2598 7.04758C-0.0865999 7.41092 -0.0865999 7.95594 0.2598 8.31929L3.81039 11.9527L2.9444 17.1304C2.9444 17.3121 2.9444 17.4938 3.031 17.6754C3.29079 18.1296 3.81039 18.3113 4.24339 18.0388L8.65999 15.5862L13.0766 18.0388C13.1632 18.1296 13.3364 18.1296 13.5096 18.1296C13.5962 18.1296 13.5962 18.1296 13.6828 18.1296C14.1158 18.0388 14.4622 17.5846 14.3756 17.0396L13.5096 11.8619L17.0602 8.22845C17.2334 8.13762 17.32 7.95594 17.32 7.77427Z" fill="#FF8A00"/>
<path id="Vector_2" d="M38.9866 7.77427C39.0732 7.32009 38.7268 6.77507 38.2938 6.77507L33.3576 6.04838L31.106 1.32488C31.0194 1.14321 30.9328 1.05237 30.7596 0.961534C30.3266 0.689024 29.807 0.870697 29.5472 1.32488L27.3822 6.04838L22.446 6.77507C22.1862 6.77507 22.013 6.8659 21.9264 7.04758C21.58 7.41092 21.58 7.95594 21.9264 8.31929L25.477 11.9527L24.611 17.1304C24.611 17.3121 24.611 17.4938 24.6976 17.6754C24.9574 18.1296 25.477 18.3113 25.91 18.0388L30.3266 15.5862L34.7432 18.0388C34.8298 18.1296 35.003 18.1296 35.1762 18.1296C35.2628 18.1296 35.2628 18.1296 35.3494 18.1296C35.7824 18.0388 36.1288 17.5846 36.0422 17.0396L35.1762 11.8619L38.7268 8.22845C38.9 8.13762 38.9866 7.95594 38.9866 7.77427Z" fill="#FF8A00"/>
<path id="Vector_3" d="M60.6533 7.77427C60.7399 7.32009 60.3935 6.77507 59.9605 6.77507L55.0244 6.04838L52.7728 1.32488C52.6862 1.14321 52.5996 1.05237 52.4264 0.961534C51.9934 0.689024 51.4738 0.870697 51.214 1.32488L49.049 6.04838L44.1128 6.77507C43.853 6.77507 43.6798 6.8659 43.5932 7.04758C43.2468 7.41092 43.2468 7.95594 43.5932 8.31929L47.1438 11.9527L46.2778 17.1304C46.2778 17.3121 46.2778 17.4938 46.3644 17.6754C46.6242 18.1296 47.1438 18.3113 47.5768 18.0388L51.9934 15.5862L56.41 18.0388C56.4966 18.1296 56.6698 18.1296 56.843 18.1296C56.9296 18.1296 56.9296 18.1296 57.0162 18.1296C57.4492 18.0388 57.7956 17.5846 57.709 17.0396L56.843 11.8619L60.3935 8.22845C60.5667 8.13762 60.6533 7.95594 60.6533 7.77427Z" fill="#FF8A00"/>
<path id="Vector_4" d="M82.32 7.77427C82.4066 7.32009 82.0602 6.77507 81.6272 6.77507L76.691 6.04838L74.4394 1.32488C74.3528 1.14321 74.2662 1.05237 74.093 0.961534C73.66 0.689024 73.1404 0.870697 72.8806 1.32488L70.7156 6.04838L65.7794 6.77507C65.5196 6.77507 65.3464 6.8659 65.2598 7.04758C64.9134 7.41092 64.9134 7.95594 65.2598 8.31929L68.8104 11.9527L67.9444 17.1304C67.9444 17.3121 67.9444 17.4938 68.031 17.6754C68.2908 18.1296 68.8104 18.3113 69.2434 18.0388L73.66 15.5862L78.0766 18.0388C78.1632 18.1296 78.3364 18.1296 78.5096 18.1296C78.5962 18.1296 78.5962 18.1296 78.6828 18.1296C79.1158 18.0388 79.4622 17.5846 79.3756 17.0396L78.5096 11.8619L82.0602 8.22845C82.2334 8.13762 82.32 7.95594 82.32 7.77427Z" fill="#FF8A00"/>
<path id="Vector_5" d="M103.987 7.77427C104.073 7.32009 103.727 6.77507 103.294 6.77507L98.3576 6.04838L96.106 1.32488C96.0194 1.14321 95.9328 1.05237 95.7596 0.961534C95.3266 0.689024 94.807 0.870697 94.5472 1.32488L92.3822 6.04838L87.446 6.77507C87.1862 6.77507 87.013 6.8659 86.9264 7.04758C86.58 7.41092 86.58 7.95594 86.9264 8.31929L90.477 11.9527L89.611 17.1304C89.611 17.3121 89.611 17.4938 89.6976 17.6754C89.9574 18.1296 90.477 18.3113 90.91 18.0388L95.3266 15.5862L99.7432 18.0388C99.8298 18.1296 100.003 18.1296 100.176 18.1296C100.263 18.1296 100.263 18.1296 100.349 18.1296C100.782 18.0388 101.129 17.5846 101.042 17.0396L100.176 11.8619L103.727 8.22845C103.9 8.13762 103.987 7.95594 103.987 7.77427Z" fill="#FF8A00"/>
</g>
</svg>
