<svg width="160" height="31" viewBox="0 0 160 31" fill="none" xmlns="http://www.w3.org/2000/svg">
<g id="Group 1000002955">
<path id="Vector" d="M151 14.1339C151 12.4018 149.626 11 147.929 11H140.071C138.374 11 137 12.4018 137 14.1339V17.8661C137 19.5982 138.374 21 140.071 21H147.929C149.626 21 151 19.5982 151 17.8661V14.1339ZM146.38 16.2768L142.854 18.0536C142.714 18.1339 142.25 18.0268 142.25 17.8661V14.2143C142.25 14.0536 142.723 13.9464 142.863 14.0268L146.231 15.9018C146.371 15.9911 146.52 16.1964 146.38 16.2768Z" fill="#046D1E"/>
<g id="Group">
<path id="Vector_2" d="M62.8089 10.7563C62.3135 10.7563 61.9081 11.1617 61.9081 11.6571C61.9081 12.1615 62.3135 12.5669 62.8089 12.5669C63.3133 12.5669 63.7186 12.1615 63.7186 11.6571C63.7096 11.1617 63.3043 10.7563 62.8089 10.7563Z" fill="#046D1E"/>
<path id="Vector_3" d="M58.7825 11.9185C56.6837 11.9185 54.9813 13.6209 54.9813 15.7196C54.9813 17.8184 56.6837 19.5208 58.7825 19.5208C60.8812 19.5208 62.5837 17.8184 62.5837 15.7196C62.5837 13.6209 60.8812 11.9185 58.7825 11.9185ZM58.7825 18.1607C57.4404 18.1607 56.3504 17.0708 56.3504 15.7286C56.3504 14.3865 57.4404 13.2966 58.7825 13.2966C60.1246 13.2966 61.2145 14.3865 61.2145 15.7286C61.2145 17.0708 60.1246 18.1607 58.7825 18.1607Z" fill="#046D1E"/>
<path id="Vector_4" d="M61.8 23.4389H55.6389C53.0807 23.4389 51 21.3582 51 18.8V12.6389C51 10.0807 53.0807 8 55.6389 8H61.8C64.3582 8 66.4389 10.0807 66.4389 12.6389V18.8C66.4389 21.3582 64.3582 23.4389 61.8 23.4389ZM55.6389 9.45021C53.8824 9.45021 52.4502 10.8824 52.4502 12.6389V18.8C52.4502 20.5565 53.8824 21.9887 55.6389 21.9887H61.8C63.5565 21.9887 64.9887 20.5565 64.9887 18.8V12.6389C64.9887 10.8824 63.5565 9.45021 61.8 9.45021H55.6389Z" fill="#046D1E"/>
</g>
<g id="Group_2">
<path id="Vector_5" d="M103.593 16.4108L103.96 14.0252H101.67V12.4798C101.67 11.8256 101.991 11.1939 103.012 11.1939H104.05V9.16356C104.05 9.16356 103.108 9 102.206 9C100.322 9 99.0924 10.1393 99.0924 12.2091V14.0252H97V16.4108H99.0924V22H101.67V16.4108H103.593Z" fill="#046D1E"/>
</g>
<path id="Vector_6" fill-rule="evenodd" clip-rule="evenodd" d="M14.4487 18.4305C14.4392 18.4756 14.4203 18.5117 14.4108 18.5568C13.7956 20.8573 13.7293 21.3716 13.0951 22.4451C12.7922 22.9503 12.4515 23.4375 12.0729 23.8976C12.0256 23.9517 11.9877 24.0149 11.9025 23.9969C11.8079 23.9788 11.7984 23.8976 11.7889 23.8254C11.6848 23.1218 11.628 22.4271 11.6564 21.7144C11.6848 20.7942 11.8079 20.4784 13.0573 15.4895C13.0762 15.4173 13.0573 15.3541 13.0289 15.282C12.7355 14.5151 12.6692 13.7393 12.9342 12.9454C13.5021 11.2403 15.5182 11.114 15.8779 12.5213C16.0956 13.3874 15.5182 14.5242 15.0734 16.2112C14.7042 17.6005 16.4175 18.5839 17.8846 17.5735C19.2381 16.6442 19.7587 14.4069 19.6546 12.8191C19.4558 9.6615 15.8211 8.97585 13.5116 9.9953C10.8708 11.1591 10.265 14.2896 11.4576 15.715C11.6091 15.8954 11.7227 16.0037 11.6753 16.1931C11.5996 16.4818 11.5334 16.7705 11.4482 17.0502C11.3819 17.2577 11.2021 17.3389 10.9749 17.2487C10.53 17.0773 10.1704 16.8156 9.86747 16.4638C8.85468 15.2639 8.56126 12.9003 9.90533 10.8975C11.3914 8.67814 14.1552 7.77597 16.673 8.04662C19.683 8.3714 21.595 10.3381 21.9452 12.5574C22.1061 13.5679 21.9925 16.0759 20.497 17.8441C18.7743 19.874 15.9915 20.0093 14.7042 18.7643C14.6285 18.6651 14.5433 18.5478 14.4487 18.4305Z" fill="#046D1E"/>
<rect id="Rectangle 4745" x="0.5" y="0.5" width="30" height="30" rx="4.5" stroke="#046D1E"/>
<rect id="Rectangle 4746" x="43.5" y="0.5" width="30" height="30" rx="4.5" stroke="#046D1E"/>
<rect id="Rectangle 4747" x="86.5" y="0.5" width="30" height="30" rx="4.5" stroke="#046D1E"/>
<rect id="Rectangle 4748" x="129.5" y="0.5" width="30" height="30" rx="4.5" stroke="#046D1E"/>
</g>
</svg>
