<svg width="73" height="12" viewBox="0 0 73 12" fill="none" xmlns="http://www.w3.org/2000/svg">
<g id="Group 13">
<g id="Iconly/Bold/Star">
<g id="Star">
<path id="Vector" d="M9.70345 7.20495C9.54557 7.35795 9.47303 7.57922 9.509 7.79622L10.0509 10.7952C10.0966 11.0494 9.98933 11.3067 9.77659 11.4536C9.56812 11.6059 9.29078 11.6242 9.06341 11.5023L6.36369 10.0942C6.26982 10.0443 6.16558 10.0174 6.05891 10.0144H5.89372C5.83642 10.0229 5.78034 10.0412 5.72914 10.0693L3.02881 11.484C2.89532 11.5511 2.74415 11.5749 2.59602 11.5511C2.23517 11.4828 1.99439 11.139 2.05352 10.7763L2.59602 7.77733C2.63199 7.5585 2.55945 7.33601 2.40158 7.18057L0.200468 5.04712C0.0163823 4.86852 -0.0476211 4.60032 0.0364977 4.35833C0.118178 4.11694 0.326646 3.94078 0.578393 3.90116L3.60789 3.46167C3.8383 3.4379 4.04067 3.2977 4.1443 3.09045L5.47922 0.353543C5.51092 0.292587 5.55176 0.236508 5.60113 0.188962L5.65599 0.146293C5.68464 0.114597 5.71756 0.0883856 5.75413 0.0670512L5.82057 0.0426689L5.9242 0H6.18082C6.41002 0.0237727 6.61178 0.160923 6.71723 0.365734L8.06984 3.09045C8.16737 3.28977 8.35694 3.42814 8.57577 3.46167L11.6053 3.90116C11.8613 3.93773 12.0752 4.1145 12.16 4.35833C12.2398 4.60276 12.1709 4.87096 11.9832 5.04712L9.70345 7.20495Z" fill="white"/>
</g>
</g>
<g id="Iconly/Bold/Star_2">
<g id="Star_2">
<path id="Vector_2" d="M24.9053 7.20495C24.7474 7.35795 24.6749 7.57922 24.7108 7.79622L25.2527 10.7952C25.2984 11.0494 25.1911 11.3067 24.9784 11.4536C24.7699 11.6059 24.4926 11.6242 24.2652 11.5023L21.5655 10.0942C21.4716 10.0443 21.3674 10.0174 21.2607 10.0144H21.0955C21.0382 10.0229 20.9822 10.0412 20.931 10.0693L18.2306 11.484C18.0971 11.5511 17.946 11.5749 17.7978 11.5511C17.437 11.4828 17.1962 11.139 17.2553 10.7763L17.7978 7.77733C17.8338 7.5585 17.7613 7.33601 17.6034 7.18057L15.4023 5.04712C15.2182 4.86852 15.1542 4.60032 15.2383 4.35833C15.32 4.11694 15.5285 3.94078 15.7802 3.90116L18.8097 3.46167C19.0401 3.4379 19.2425 3.2977 19.3461 3.09045L20.681 0.353543C20.7127 0.292587 20.7536 0.236508 20.803 0.188962L20.8578 0.146293C20.8865 0.114597 20.9194 0.0883856 20.956 0.0670512L21.0224 0.0426689L21.126 0H21.3826C21.6118 0.0237727 21.8136 0.160923 21.9191 0.365734L23.2717 3.09045C23.3692 3.28977 23.5588 3.42814 23.7776 3.46167L26.8071 3.90116C27.0631 3.93773 27.277 4.1145 27.3618 4.35833C27.4416 4.60276 27.3728 4.87096 27.185 5.04712L24.9053 7.20495Z" fill="white"/>
</g>
</g>
<g id="Iconly/Bold/Star_3">
<g id="Star_3">
<path id="Vector_3" d="M40.1071 7.20495C39.9492 7.35795 39.8767 7.57922 39.9126 7.79622L40.4545 10.7952C40.5003 11.0494 40.393 11.3067 40.1802 11.4536C39.9718 11.6059 39.6944 11.6242 39.4671 11.5023L36.7673 10.0942C36.6735 10.0443 36.5692 10.0174 36.4626 10.0144H36.2974C36.2401 10.0229 36.184 10.0412 36.1328 10.0693L33.4325 11.484C33.299 11.5511 33.1478 11.5749 32.9997 11.5511C32.6388 11.4828 32.398 11.139 32.4572 10.7763L32.9997 7.77733C33.0356 7.5585 32.9631 7.33601 32.8052 7.18057L30.6041 5.04712C30.42 4.86852 30.356 4.60032 30.4401 4.35833C30.5218 4.11694 30.7303 3.94078 30.982 3.90116L34.0115 3.46167C34.2419 3.4379 34.4443 3.2977 34.5479 3.09045L35.8829 0.353543C35.9146 0.292587 35.9554 0.236508 36.0048 0.188962L36.0596 0.146293C36.0883 0.114597 36.1212 0.0883856 36.1578 0.0670512L36.2242 0.0426689L36.3278 0H36.5845C36.8137 0.0237727 37.0154 0.160923 37.1209 0.365734L38.4735 3.09045C38.571 3.28977 38.7606 3.42814 38.9794 3.46167L42.0089 3.90116C42.2649 3.93773 42.4789 4.1145 42.5636 4.35833C42.6435 4.60276 42.5746 4.87096 42.3868 5.04712L40.1071 7.20495Z" fill="white"/>
</g>
</g>
<g id="Iconly/Bold/Star_4">
<g id="Star_4">
<path id="Vector_4" d="M55.3089 7.20495C55.151 7.35795 55.0785 7.57922 55.1145 7.79622L55.6564 10.7952C55.7021 11.0494 55.5948 11.3067 55.3821 11.4536C55.1736 11.6059 54.8962 11.6242 54.6689 11.5023L51.9692 10.0942C51.8753 10.0443 51.7711 10.0174 51.6644 10.0144H51.4992C51.4419 10.0229 51.3858 10.0412 51.3346 10.0693L48.6343 11.484C48.5008 11.5511 48.3496 11.5749 48.2015 11.5511C47.8406 11.4828 47.5999 11.139 47.659 10.7763L48.2015 7.77733C48.2375 7.5585 48.1649 7.33601 48.007 7.18057L45.8059 5.04712C45.6219 4.86852 45.5578 4.60032 45.642 4.35833C45.7236 4.11694 45.9321 3.94078 46.1839 3.90116L49.2134 3.46167C49.4438 3.4379 49.6461 3.2977 49.7498 3.09045L51.0847 0.353543C51.1164 0.292587 51.1572 0.236508 51.2066 0.188962L51.2615 0.146293C51.2901 0.114597 51.323 0.0883856 51.3596 0.0670512L51.426 0.0426689L51.5297 0H51.7863C52.0155 0.0237727 52.2172 0.160923 52.3227 0.365734L53.6753 3.09045C53.7728 3.28977 53.9624 3.42814 54.1812 3.46167L57.2107 3.90116C57.4667 3.93773 57.6807 4.1145 57.7654 4.35833C57.8453 4.60276 57.7764 4.87096 57.5887 5.04712L55.3089 7.20495Z" fill="white"/>
</g>
</g>
<g id="Iconly/Bold/Star_5">
<g id="Star_5">
<path id="Vector_5" d="M70.5107 7.20495C70.3529 7.35795 70.2803 7.57922 70.3163 7.79622L70.8582 10.7952C70.9039 11.0494 70.7966 11.3067 70.5839 11.4536C70.3754 11.6059 70.0981 11.6242 69.8707 11.5023L67.171 10.0942C67.0771 10.0443 66.9729 10.0174 66.8662 10.0144H66.701C66.6437 10.0229 66.5876 10.0412 66.5364 10.0693L63.8361 11.484C63.7026 11.5511 63.5514 11.5749 63.4033 11.5511C63.0424 11.4828 62.8017 11.139 62.8608 10.7763L63.4033 7.77733C63.4393 7.5585 63.3667 7.33601 63.2089 7.18057L61.0077 5.04712C60.8237 4.86852 60.7597 4.60032 60.8438 4.35833C60.9255 4.11694 61.1339 3.94078 61.3857 3.90116L64.4152 3.46167C64.6456 3.4379 64.848 3.2977 64.9516 3.09045L66.2865 0.353543C66.3182 0.292587 66.359 0.236508 66.4084 0.188962L66.4633 0.146293C66.4919 0.114597 66.5248 0.0883856 66.5614 0.0670512L66.6279 0.0426689L66.7315 0H66.9881C67.2173 0.0237727 67.4191 0.160923 67.5245 0.365734L68.8771 3.09045C68.9746 3.28977 69.1642 3.42814 69.383 3.46167L72.4125 3.90116C72.6686 3.93773 72.8825 4.1145 72.9672 4.35833C73.0471 4.60276 72.9782 4.87096 72.7905 5.04712L70.5107 7.20495Z" fill="white"/>
</g>
</g>
</g>
</svg>
