<svg width="117" height="90" viewBox="0 0 117 90" fill="none" xmlns="http://www.w3.org/2000/svg">
<g id="Group">
<g id="Group_2">
<path id="Vector" d="M72.053 90C71.7905 89.1223 71.7249 88.8032 71.6592 88.5638C71.2654 85.5319 69.9526 82.0213 70.8059 79.7074C71.5936 77.633 74.8099 76.7553 76.976 75.4787C83.0149 71.8883 86.9533 66.2234 88.5943 58.0053C82.9493 57.2074 77.895 55.0532 73.694 50.4255C64.4388 40.0532 63.3886 22.5 71.331 10.7713C79.6016 -1.43616 94.9613 -3.67021 105.595 6.14362C115.244 15.0798 118.132 27.6064 116.623 41.5691C113.997 66.0638 99.0967 84.1755 78.2232 88.883C76.254 89.3617 74.2192 89.6011 72.053 90Z" fill="#83B08E"/>
<path id="Vector_2" d="M6.16348 90C5.90134 89.0514 5.77027 88.6561 5.70474 88.2608C4.00084 79.486 4.00084 79.486 10.6198 75.7706C16.8456 72.2922 20.8432 66.6005 22.5471 58.379C20.7776 57.9047 19.1393 57.6675 17.5665 57.1142C6.42561 53.6359 -1.11083 40.4341 0.134319 26.679C1.37947 12.8448 10.8164 1.85648 22.2849 1.06595C39.7826 -0.198886 52.4963 16.8765 50.8579 39.5645C49.0229 64.8613 33.95 84.0711 12.1271 88.9723C10.1611 89.3676 8.26058 89.6047 6.16348 90Z" fill="#83B08E"/>
</g>
</g>
</svg>
