<svg width="149" height="201" viewBox="0 0 149 201" fill="none" xmlns="http://www.w3.org/2000/svg">
<path opacity="0.8" d="M3.024 6V2.368H5.04C6.464 2.368 7.104 3.04 7.104 4.192C7.104 5.312 6.464 6 5.04 6H3.024ZM8.976 4.192C8.976 2.384 7.68 0.879999 5.04 0.879999H1.2V12H3.024V7.488H5.04C7.936 7.488 8.976 5.776 8.976 4.192ZM10.1076 7.552C10.1076 10.272 11.9476 12.144 14.2356 12.144C15.7076 12.144 16.7636 11.44 17.3236 10.688V12H19.1636V3.184H17.3236V4.464C16.7796 3.744 15.7556 3.04 14.2676 3.04C11.9476 3.04 10.1076 4.832 10.1076 7.552ZM17.3236 7.584C17.3236 9.488 16.0276 10.56 14.6516 10.56C13.2916 10.56 11.9796 9.456 11.9796 7.552C11.9796 5.648 13.2916 4.624 14.6516 4.624C16.0276 4.624 17.3236 5.696 17.3236 7.584ZM25.0314 9.904L22.5514 3.184H20.5194L23.9914 11.856L22.1994 16.144H24.0874L29.4954 3.184H27.6074L25.0314 9.904ZM43.3679 12H45.1759V6.8C45.1759 4.336 43.6079 3.04 41.5439 3.04C40.2639 3.04 39.0159 3.712 38.4719 4.784C37.8639 3.632 36.6959 3.04 35.3039 3.04C34.2479 3.04 33.2879 3.472 32.6959 4.192V3.184H30.8719V12H32.6959V7.072C32.6959 5.456 33.5759 4.624 34.9199 4.624C36.2479 4.624 37.1279 5.456 37.1279 7.072V12H38.9359V7.072C38.9359 5.456 39.8159 4.624 41.1599 4.624C42.4879 4.624 43.3679 5.456 43.3679 7.072V12ZM51.2089 4.576C52.5689 4.576 53.6409 5.44 53.6729 6.8H48.7929C48.9849 5.408 49.9769 4.576 51.2089 4.576ZM55.3369 9.376H53.3689C53.0329 10.064 52.4089 10.608 51.2889 10.608C49.9449 10.608 48.9049 9.728 48.7769 8.272H55.5129C55.5609 7.968 55.5769 7.68 55.5769 7.376C55.5769 4.784 53.8009 3.04 51.2889 3.04C48.6809 3.04 46.8889 4.816 46.8889 7.584C46.8889 10.352 48.7609 12.144 51.2889 12.144C53.4489 12.144 54.8409 10.912 55.3369 9.376ZM63.6279 12H65.4359V6.8C65.4359 4.336 63.8839 3.04 61.8199 3.04C60.7639 3.04 59.7879 3.472 59.1959 4.192V3.184H57.3719V12H59.1959V7.072C59.1959 5.456 60.0759 4.624 61.4199 4.624C62.7479 4.624 63.6279 5.456 63.6279 7.072V12ZM68.0505 9.552C68.0505 11.344 69.0265 12 70.5945 12H72.0345V10.48H70.9145C70.1465 10.48 69.8905 10.208 69.8905 9.552V4.672H72.0345V3.184H69.8905V0.992H68.0505V3.184H67.0105V4.672H68.0505V9.552ZM77.8719 12H79.6959V4.384L83.1039 12H84.3679L87.7599 4.384V12H89.5839V0.879999H87.6319L83.7439 9.6L79.8399 0.879999H77.8719V12ZM95.6933 4.576C97.0533 4.576 98.1253 5.44 98.1573 6.8H93.2773C93.4693 5.408 94.4613 4.576 95.6933 4.576ZM99.8212 9.376H97.8533C97.5173 10.064 96.8933 10.608 95.7733 10.608C94.4293 10.608 93.3893 9.728 93.2613 8.272H99.9973C100.045 7.968 100.061 7.68 100.061 7.376C100.061 4.784 98.2853 3.04 95.7733 3.04C93.1653 3.04 91.3733 4.816 91.3733 7.584C91.3733 10.352 93.2453 12.144 95.7733 12.144C97.9333 12.144 99.3253 10.912 99.8212 9.376ZM102.144 9.552C102.144 11.344 103.12 12 104.688 12H106.128V10.48H105.008C104.24 10.48 103.984 10.208 103.984 9.552V4.672H106.128V3.184H103.984V0.992H102.144V3.184H101.104V4.672H102.144V9.552ZM107.809 12H109.633V7.072C109.633 5.456 110.513 4.624 111.857 4.624C113.185 4.624 114.065 5.456 114.065 7.072V12H115.873V6.8C115.873 4.336 114.337 3.04 112.369 3.04C111.233 3.04 110.241 3.472 109.633 4.208V0.16H107.809V12ZM126.6 7.584C126.6 4.816 124.616 3.04 122.104 3.04C119.592 3.04 117.608 4.816 117.608 7.584C117.608 10.352 119.512 12.144 122.024 12.144C124.552 12.144 126.6 10.352 126.6 7.584ZM119.464 7.584C119.464 5.584 120.696 4.624 122.072 4.624C123.432 4.624 124.728 5.584 124.728 7.584C124.728 9.584 123.384 10.56 122.024 10.56C120.648 10.56 119.464 9.584 119.464 7.584ZM127.795 7.552C127.795 10.272 129.635 12.144 131.955 12.144C133.395 12.144 134.451 11.472 135.011 10.672V12H136.851V0.16H135.011V4.416C134.339 3.584 133.123 3.04 131.971 3.04C129.635 3.04 127.795 4.832 127.795 7.552ZM135.011 7.584C135.011 9.488 133.715 10.56 132.339 10.56C130.979 10.56 129.667 9.456 129.667 7.552C129.667 5.648 130.979 4.624 132.339 4.624C133.715 4.624 135.011 5.696 135.011 7.584ZM145.823 9.536C145.727 6.352 140.751 7.344 140.751 5.568C140.751 4.976 141.263 4.576 142.239 4.576C143.231 4.576 143.823 5.104 143.887 5.872H145.711C145.615 4.112 144.303 3.04 142.303 3.04C140.223 3.04 138.911 4.176 138.911 5.584C138.911 8.816 144.031 7.824 144.031 9.552C144.031 10.16 143.471 10.608 142.415 10.608C141.407 10.608 140.719 10.016 140.655 9.296H138.767C138.847 10.896 140.335 12.144 142.447 12.144C144.527 12.144 145.823 11.024 145.823 9.536ZM1.2 58H3.024V50.384L6.432 58H7.696L11.088 50.384V58H12.912V46.88H10.96L7.072 55.6L3.168 46.88H1.2V58ZM23.7094 53.584C23.7094 50.816 21.7254 49.04 19.2134 49.04C16.7014 49.04 14.7174 50.816 14.7174 53.584C14.7174 56.352 16.6214 58.144 19.1334 58.144C21.6614 58.144 23.7094 56.352 23.7094 53.584ZM16.5734 53.584C16.5734 51.584 17.8054 50.624 19.1814 50.624C20.5414 50.624 21.8374 51.584 21.8374 53.584C21.8374 55.584 20.4934 56.56 19.1334 56.56C17.7574 56.56 16.5734 55.584 16.5734 53.584ZM31.7685 58H33.5765V52.8C33.5765 50.336 32.0245 49.04 29.9605 49.04C28.9045 49.04 27.9285 49.472 27.3365 50.192V49.184H25.5125V58H27.3365V53.072C27.3365 51.456 28.2165 50.624 29.5605 50.624C30.8885 50.624 31.7685 51.456 31.7685 53.072V58ZM39.6151 50.576C40.9751 50.576 42.0471 51.44 42.0791 52.8H37.1991C37.3911 51.408 38.3831 50.576 39.6151 50.576ZM43.7431 55.376H41.7751C41.4391 56.064 40.8151 56.608 39.6951 56.608C38.3511 56.608 37.3111 55.728 37.1831 54.272H43.9191C43.9671 53.968 43.9831 53.68 43.9831 53.376C43.9831 50.784 42.2071 49.04 39.6951 49.04C37.0871 49.04 35.2951 50.816 35.2951 53.584C35.2951 56.352 37.1671 58.144 39.6951 58.144C41.8551 58.144 43.2471 56.912 43.7431 55.376ZM49.2501 55.904L46.7701 49.184H44.7381L48.2101 57.856L46.4181 62.144H48.3061L53.7141 49.184H51.8261L49.2501 55.904ZM64.3189 46.736C61.1829 46.736 58.6389 49.088 58.6389 52.416C58.6389 55.76 61.1829 58.096 64.3189 58.096C67.3109 58.096 69.4869 55.904 69.8229 53.328V51.904H63.6949V53.36H67.8709C67.5989 55.232 66.3349 56.448 64.3189 56.448C62.1109 56.448 60.5109 54.864 60.5109 52.416C60.5109 49.968 62.1109 48.4 64.3189 48.4C65.6469 48.4 66.7029 48.96 67.2949 50.08H69.4869C68.6389 47.904 66.6389 46.736 64.3189 46.736ZM79.6059 49.184H77.7819V54.096C77.7819 55.712 76.9019 56.544 75.5579 56.544C74.2299 56.544 73.3499 55.712 73.3499 54.096V49.184H71.5419V54.368C71.5419 56.832 73.1099 58.128 75.1739 58.128C76.2139 58.128 77.2059 57.696 77.7819 56.944V58H79.6059V49.184ZM81.4045 53.552C81.4045 56.272 83.2445 58.144 85.5325 58.144C87.0045 58.144 88.0605 57.44 88.6205 56.688V58H90.4605V49.184H88.6205V50.464C88.0765 49.744 87.0525 49.04 85.5645 49.04C83.2445 49.04 81.4045 50.832 81.4045 53.552ZM88.6205 53.584C88.6205 55.488 87.3245 56.56 85.9485 56.56C84.5885 56.56 83.2765 55.456 83.2765 53.552C83.2765 51.648 84.5885 50.624 85.9485 50.624C87.3245 50.624 88.6205 51.696 88.6205 53.584ZM94.6803 53.36C94.6803 51.488 95.5123 50.928 96.8563 50.928H97.3203V49.04C96.0723 49.04 95.1923 49.584 94.6803 50.464V49.184H92.8563V58H94.6803V53.36ZM98.3889 53.552C98.3889 56.272 100.229 58.144 102.517 58.144C103.989 58.144 105.045 57.44 105.605 56.688V58H107.445V49.184H105.605V50.464C105.061 49.744 104.037 49.04 102.549 49.04C100.229 49.04 98.3889 50.832 98.3889 53.552ZM105.605 53.584C105.605 55.488 104.309 56.56 102.933 56.56C101.573 56.56 100.261 55.456 100.261 53.552C100.261 51.648 101.573 50.624 102.933 50.624C104.309 50.624 105.605 51.696 105.605 53.584ZM116.097 58H117.905V52.8C117.905 50.336 116.353 49.04 114.289 49.04C113.233 49.04 112.257 49.472 111.665 50.192V49.184H109.841V58H111.665V53.072C111.665 51.456 112.545 50.624 113.889 50.624C115.217 50.624 116.097 51.456 116.097 53.072V58ZM120.519 55.552C120.519 57.344 121.495 58 123.063 58H124.503V56.48H123.383C122.615 56.48 122.359 56.208 122.359 55.552V50.672H124.503V49.184H122.359V46.992H120.519V49.184H119.479V50.672H120.519V55.552ZM129.896 50.576C131.256 50.576 132.328 51.44 132.36 52.8H127.48C127.672 51.408 128.664 50.576 129.896 50.576ZM134.024 55.376H132.056C131.72 56.064 131.096 56.608 129.976 56.608C128.632 56.608 127.592 55.728 127.464 54.272H134.2C134.248 53.968 134.264 53.68 134.264 53.376C134.264 50.784 132.488 49.04 129.976 49.04C127.368 49.04 125.576 50.816 125.576 53.584C125.576 56.352 127.448 58.144 129.976 58.144C132.136 58.144 133.528 56.912 134.024 55.376ZM139.771 50.576C141.131 50.576 142.203 51.44 142.235 52.8H137.355C137.547 51.408 138.539 50.576 139.771 50.576ZM143.899 55.376H141.931C141.595 56.064 140.971 56.608 139.851 56.608C138.507 56.608 137.467 55.728 137.339 54.272H144.075C144.123 53.968 144.139 53.68 144.139 53.376C144.139 50.784 142.363 49.04 139.851 49.04C137.243 49.04 135.451 50.816 135.451 53.584C135.451 56.352 137.323 58.144 139.851 58.144C142.011 58.144 143.403 56.912 143.899 55.376ZM146.494 54.64H148.014L148.222 46.88H146.286L146.494 54.64ZM148.462 56.944C148.462 56.288 147.95 55.776 147.31 55.776C146.654 55.776 146.142 56.288 146.142 56.944C146.142 57.6 146.654 58.112 147.31 58.112C147.95 58.112 148.462 57.6 148.462 56.944ZM7.104 96.208C7.104 97.312 6.464 98.096 5.04 98.096H3.024V94.368H5.04C6.464 94.368 7.104 95.088 7.104 96.208ZM1.2 92.88V104H3.024V99.552H4.416L6.976 104H9.152L6.4 99.392C8.272 98.928 8.976 97.52 8.976 96.208C8.976 94.4 7.68 92.88 5.04 92.88H1.2ZM15.0214 96.576C16.3814 96.576 17.4534 97.44 17.4854 98.8H12.6054C12.7974 97.408 13.7894 96.576 15.0214 96.576ZM19.1494 101.376H17.1814C16.8454 102.064 16.2214 102.608 15.1014 102.608C13.7574 102.608 12.7174 101.728 12.5894 100.272H19.3254C19.3734 99.968 19.3894 99.68 19.3894 99.376C19.3894 96.784 17.6134 95.04 15.1014 95.04C12.4934 95.04 10.7014 96.816 10.7014 99.584C10.7014 102.352 12.5734 104.144 15.1014 104.144C17.2614 104.144 18.6534 102.912 19.1494 101.376ZM21.4724 101.552C21.4724 103.344 22.4484 104 24.0164 104H25.4564V102.48H24.3364C23.5684 102.48 23.3124 102.208 23.3124 101.552V96.672H25.4564V95.184H23.3124V92.992H21.4724V95.184H20.4324V96.672H21.4724V101.552ZM35.1215 95.184H33.2975V100.096C33.2975 101.712 32.4175 102.544 31.0735 102.544C29.7455 102.544 28.8655 101.712 28.8655 100.096V95.184H27.0575V100.368C27.0575 102.832 28.6255 104.128 30.6895 104.128C31.7295 104.128 32.7215 103.696 33.2975 102.944V104H35.1215V95.184ZM39.3521 99.36C39.3521 97.488 40.1841 96.928 41.5281 96.928H41.9921V95.04C40.7441 95.04 39.8641 95.584 39.3521 96.464V95.184H37.5281V104H39.3521V99.36ZM49.9248 104H51.7328V98.8C51.7328 96.336 50.1808 95.04 48.1168 95.04C47.0608 95.04 46.0848 95.472 45.4928 96.192V95.184H43.6688V104H45.4928V99.072C45.4928 97.456 46.3728 96.624 47.7168 96.624C49.0448 96.624 49.9248 97.456 49.9248 99.072V104ZM60.6354 101.536C60.5394 98.352 55.5634 99.344 55.5634 97.568C55.5634 96.976 56.0754 96.576 57.0514 96.576C58.0434 96.576 58.6354 97.104 58.6994 97.872H60.5234C60.4274 96.112 59.1154 95.04 57.1154 95.04C55.0354 95.04 53.7234 96.176 53.7234 97.584C53.7234 100.816 58.8434 99.824 58.8434 101.552C58.8434 102.16 58.2834 102.608 57.2274 102.608C56.2194 102.608 55.5314 102.016 55.4674 101.296H53.5794C53.6594 102.896 55.1474 104.144 57.2594 104.144C59.3394 104.144 60.6354 103.024 60.6354 101.536ZM8.704 146.848C8.704 142.784 2.816 144.352 2.816 141.84C2.816 140.768 3.632 140.256 4.688 140.288C5.84 140.32 6.496 141.008 6.56 141.76H8.576C8.416 139.856 6.912 138.736 4.784 138.736C2.512 138.736 0.96 139.952 0.96 141.904C0.96 146 6.864 144.256 6.864 146.944C6.864 147.888 6.144 148.576 4.864 148.576C3.6 148.576 2.96 147.84 2.88 146.928H0.928C0.928 148.896 2.64 150.112 4.864 150.112C7.344 150.112 8.704 148.512 8.704 146.848ZM10.8563 150H12.6803V145.072C12.6803 143.456 13.5603 142.624 14.9043 142.624C16.2323 142.624 17.1123 143.456 17.1123 145.072V150H18.9203V144.8C18.9203 142.336 17.3843 141.04 15.4163 141.04C14.2803 141.04 13.2883 141.472 12.6803 142.208V138.16H10.8563V150ZM21.2469 150H23.0709V141.184H21.2469V150ZM22.1749 140.016C22.8149 140.016 23.3269 139.504 23.3269 138.848C23.3269 138.192 22.8149 137.68 22.1749 137.68C21.5189 137.68 21.0069 138.192 21.0069 138.848C21.0069 139.504 21.5189 140.016 22.1749 140.016ZM27.2896 142.48V141.184H25.4656V154.192H27.2896V148.72C27.8656 149.408 28.9056 150.144 30.3616 150.144C32.6816 150.144 34.5056 148.272 34.5056 145.552C34.5056 142.832 32.6816 141.04 30.3616 141.04C28.9216 141.04 27.8496 141.744 27.2896 142.48ZM32.6496 145.552C32.6496 147.456 31.3376 148.56 29.9616 148.56C28.6016 148.56 27.2896 147.488 27.2896 145.584C27.2896 143.696 28.6016 142.624 29.9616 142.624C31.3376 142.624 32.6496 143.648 32.6496 145.552ZM38.1334 142.48V141.184H36.3094V154.192H38.1334V148.72C38.7094 149.408 39.7494 150.144 41.2054 150.144C43.5254 150.144 45.3494 148.272 45.3494 145.552C45.3494 142.832 43.5254 141.04 41.2054 141.04C39.7654 141.04 38.6934 141.744 38.1334 142.48ZM43.4934 145.552C43.4934 147.456 42.1814 148.56 40.8054 148.56C39.4454 148.56 38.1334 147.488 38.1334 145.584C38.1334 143.696 39.4454 142.624 40.8054 142.624C42.1814 142.624 43.4934 143.648 43.4934 145.552ZM47.1531 150H48.9771V141.184H47.1531V150ZM48.0811 140.016C48.7211 140.016 49.2331 139.504 49.2331 138.848C49.2331 138.192 48.7211 137.68 48.0811 137.68C47.4251 137.68 46.9131 138.192 46.9131 138.848C46.9131 139.504 47.4251 140.016 48.0811 140.016ZM57.6279 150H59.4359V144.8C59.4359 142.336 57.8839 141.04 55.8199 141.04C54.7639 141.04 53.7879 141.472 53.1959 142.192V141.184H51.3719V150H53.1959V145.072C53.1959 143.456 54.0759 142.624 55.4199 142.624C56.7479 142.624 57.6279 143.456 57.6279 145.072V150ZM61.1545 145.552C61.1545 148.272 62.9945 150.144 65.3145 150.144C66.7545 150.144 67.8105 149.424 68.3705 148.672V150.144C68.3705 151.904 67.3145 152.768 65.9065 152.768C64.6425 152.768 63.6665 152.144 63.3945 151.232H61.5865C61.8105 153.184 63.5545 154.352 65.9065 154.352C68.6585 154.352 70.2105 152.544 70.2105 150.144V141.184H68.3705V142.464C67.8265 141.712 66.7545 141.04 65.3145 141.04C62.9945 141.04 61.1545 142.832 61.1545 145.552ZM68.3705 145.584C68.3705 147.488 67.0745 148.56 65.6985 148.56C64.3385 148.56 63.0265 147.456 63.0265 145.552C63.0265 143.648 64.3385 142.624 65.6985 142.624C67.0745 142.624 68.3705 143.696 68.3705 145.584ZM3.024 190V186.368H5.04C6.464 186.368 7.104 187.04 7.104 188.192C7.104 189.312 6.464 190 5.04 190H3.024ZM8.976 188.192C8.976 186.384 7.68 184.88 5.04 184.88H1.2V196H3.024V191.488H5.04C7.936 191.488 8.976 189.776 8.976 188.192ZM12.5396 191.36C12.5396 189.488 13.3716 188.928 14.7156 188.928H15.1796V187.04C13.9316 187.04 13.0516 187.584 12.5396 188.464V187.184H10.7156V196H12.5396V191.36ZM16.8563 196H18.6803V187.184H16.8563V196ZM17.7843 186.016C18.4243 186.016 18.9363 185.504 18.9363 184.848C18.9363 184.192 18.4243 183.68 17.7843 183.68C17.1283 183.68 16.6163 184.192 16.6163 184.848C16.6163 185.504 17.1283 186.016 17.7843 186.016ZM20.035 187.184L23.379 196H25.555L28.915 187.184H26.979L24.483 194.368L21.987 187.184H20.035ZM29.6858 191.552C29.6858 194.272 31.5258 196.144 33.8138 196.144C35.2858 196.144 36.3418 195.44 36.9018 194.688V196H38.7418V187.184H36.9018V188.464C36.3578 187.744 35.3338 187.04 33.8458 187.04C31.5258 187.04 29.6858 188.832 29.6858 191.552ZM36.9018 191.584C36.9018 193.488 35.6058 194.56 34.2298 194.56C32.8698 194.56 31.5578 193.456 31.5578 191.552C31.5578 189.648 32.8698 188.624 34.2298 188.624C35.6058 188.624 36.9018 189.696 36.9018 191.584ZM40.5295 191.584C40.5295 194.352 42.3215 196.144 44.8495 196.144C47.0095 196.144 48.4175 194.944 48.9135 193.216H46.9455C46.6095 194.128 45.9375 194.608 44.8495 194.608C43.3775 194.608 42.4015 193.52 42.4015 191.584C42.4015 189.664 43.3775 188.576 44.8495 188.576C45.9375 188.576 46.6415 189.12 46.9455 189.968H48.9135C48.4175 188.112 47.0095 187.04 44.8495 187.04C42.3215 187.04 40.5295 188.832 40.5295 191.584ZM54.2033 193.904L51.7233 187.184H49.6913L53.1633 195.856L51.3713 200.144H53.2593L58.6673 187.184H56.7793L54.2033 193.904ZM66.024 190V186.368H68.04C69.464 186.368 70.104 187.04 70.104 188.192C70.104 189.312 69.464 190 68.04 190H66.024ZM71.976 188.192C71.976 186.384 70.68 184.88 68.04 184.88H64.2V196H66.024V191.488H68.04C70.936 191.488 71.976 189.776 71.976 188.192ZM82.1156 191.584C82.1156 188.816 80.1316 187.04 77.6196 187.04C75.1076 187.04 73.1236 188.816 73.1236 191.584C73.1236 194.352 75.0276 196.144 77.5396 196.144C80.0676 196.144 82.1156 194.352 82.1156 191.584ZM74.9796 191.584C74.9796 189.584 76.2116 188.624 77.5876 188.624C78.9476 188.624 80.2436 189.584 80.2436 191.584C80.2436 193.584 78.8996 194.56 77.5396 194.56C76.1636 194.56 74.9796 193.584 74.9796 191.584ZM83.9188 196H85.7428V184.16H83.9188V196ZM88.1375 196H89.9615V187.184H88.1375V196ZM89.0655 186.016C89.7055 186.016 90.2175 185.504 90.2175 184.848C90.2175 184.192 89.7055 183.68 89.0655 183.68C88.4095 183.68 87.8975 184.192 87.8975 184.848C87.8975 185.504 88.4095 186.016 89.0655 186.016ZM91.7483 191.584C91.7483 194.352 93.5403 196.144 96.0683 196.144C98.2283 196.144 99.6363 194.944 100.132 193.216H98.1643C97.8283 194.128 97.1563 194.608 96.0683 194.608C94.5963 194.608 93.6203 193.52 93.6203 191.584C93.6203 189.664 94.5963 188.576 96.0683 188.576C97.1563 188.576 97.8603 189.12 98.1643 189.968H100.132C99.6363 188.112 98.2283 187.04 96.0683 187.04C93.5403 187.04 91.7483 188.832 91.7483 191.584ZM105.422 193.904L102.942 187.184H100.91L104.382 195.856L102.59 200.144H104.478L109.886 187.184H107.998L105.422 193.904Z" fill="#666666"/>
</svg>
