<svg width="122" height="202" viewBox="0 0 122 202" fill="none" xmlns="http://www.w3.org/2000/svg">
<path opacity="0.8" d="M8.704 9.848C8.704 5.784 2.816 7.352 2.816 4.84C2.816 3.768 3.632 3.256 4.688 3.288C5.84 3.32 6.496 4.008 6.56 4.76H8.576C8.416 2.856 6.912 1.736 4.784 1.736C2.512 1.736 0.96 2.952 0.96 4.904C0.96 9 6.864 7.256 6.864 9.944C6.864 10.888 6.144 11.576 4.864 11.576C3.6 11.576 2.96 10.84 2.88 9.928H0.928C0.928 11.896 2.64 13.112 4.864 13.112C7.344 13.112 8.704 11.512 8.704 9.848ZM10.8563 13H12.6803V4.184H10.8563V13ZM11.7843 3.016C12.4243 3.016 12.9363 2.504 12.9363 1.848C12.9363 1.192 12.4243 0.679999 11.7843 0.679999C11.1283 0.679999 10.6163 1.192 10.6163 1.848C10.6163 2.504 11.1283 3.016 11.7843 3.016ZM14.467 8.552C14.467 11.272 16.307 13.144 18.627 13.144C20.067 13.144 21.123 12.424 21.683 11.672V13.144C21.683 14.904 20.627 15.768 19.219 15.768C17.955 15.768 16.979 15.144 16.707 14.232H14.899C15.123 16.184 16.867 17.352 19.219 17.352C21.971 17.352 23.523 15.544 23.523 13.144V4.184H21.683V5.464C21.139 4.712 20.067 4.04 18.627 4.04C16.307 4.04 14.467 5.832 14.467 8.552ZM21.683 8.584C21.683 10.488 20.387 11.56 19.011 11.56C17.651 11.56 16.339 10.456 16.339 8.552C16.339 6.648 17.651 5.624 19.011 5.624C20.387 5.624 21.683 6.696 21.683 8.584ZM32.1748 13H33.9828V7.8C33.9828 5.336 32.4308 4.04 30.3668 4.04C29.3108 4.04 28.3348 4.472 27.7428 5.192V4.184H25.9188V13H27.7428V8.072C27.7428 6.456 28.6228 5.624 29.9668 5.624C31.2948 5.624 32.1748 6.456 32.1748 8.072V13ZM40.4656 13H42.2896V1.88H40.4656V13ZM50.9404 13H52.7484V7.8C52.7484 5.336 51.1964 4.04 49.1324 4.04C48.0764 4.04 47.1004 4.472 46.5084 5.192V4.184H44.6844V13H46.5084V8.072C46.5084 6.456 47.3884 5.624 48.7324 5.624C50.0604 5.624 50.9404 6.456 50.9404 8.072V13ZM5.552 57.128L2.256 47.88H0.304L4.496 59H6.608L10.784 47.88H8.864L5.552 57.128ZM12.3094 59H14.1334V50.184H12.3094V59ZM13.2374 49.016C13.8774 49.016 14.3894 48.504 14.3894 47.848C14.3894 47.192 13.8774 46.68 13.2374 46.68C12.5814 46.68 12.0694 47.192 12.0694 47.848C12.0694 48.504 12.5814 49.016 13.2374 49.016ZM20.2401 51.576C21.6001 51.576 22.6721 52.44 22.7041 53.8H17.8241C18.0161 52.408 19.0081 51.576 20.2401 51.576ZM24.3681 56.376H22.4001C22.0641 57.064 21.4401 57.608 20.3201 57.608C18.9761 57.608 17.9361 56.728 17.8081 55.272H24.5441C24.5921 54.968 24.6081 54.68 24.6081 54.376C24.6081 51.784 22.8321 50.04 20.3201 50.04C17.7121 50.04 15.9201 51.816 15.9201 54.584C15.9201 57.352 17.7921 59.144 20.3201 59.144C22.4801 59.144 23.8721 57.912 24.3681 56.376ZM28.1151 59H30.0351L31.8111 52.488L33.5871 59H35.5071L38.2431 50.184H36.4511L34.6271 57.24L32.8351 50.184H30.9311L29.0591 57.272L27.2191 50.184H25.3631L28.1151 59ZM43.1545 53.416C43.1545 56.76 45.6985 59.096 48.8345 59.096C51.1545 59.096 53.1545 57.944 54.0025 55.768H51.8105C51.2185 56.952 50.1625 57.512 48.8345 57.512C46.6265 57.512 45.0265 55.928 45.0265 53.416C45.0265 50.904 46.6265 49.336 48.8345 49.336C50.1625 49.336 51.2185 49.896 51.8105 51.08H54.0025C53.1545 48.904 51.1545 47.736 48.8345 47.736C45.6985 47.736 43.1545 50.088 43.1545 53.416ZM55.5295 54.552C55.5295 57.272 57.3695 59.144 59.6575 59.144C61.1295 59.144 62.1855 58.44 62.7455 57.688V59H64.5855V50.184H62.7455V51.464C62.2015 50.744 61.1775 50.04 59.6895 50.04C57.3695 50.04 55.5295 51.832 55.5295 54.552ZM62.7455 54.584C62.7455 56.488 61.4495 57.56 60.0735 57.56C58.7135 57.56 57.4015 56.456 57.4015 54.552C57.4015 52.648 58.7135 51.624 60.0735 51.624C61.4495 51.624 62.7455 52.696 62.7455 54.584ZM68.8053 54.36C68.8053 52.488 69.6373 51.928 70.9813 51.928H71.4453V50.04C70.1973 50.04 69.3173 50.584 68.8053 51.464V50.184H66.9813V59H68.8053V54.36ZM73.4099 56.552C73.4099 58.344 74.3859 59 75.9539 59H77.3939V57.48H76.2739C75.5059 57.48 75.2499 57.208 75.2499 56.552V51.672H77.3939V50.184H75.2499V47.992H73.4099V50.184H72.3699V51.672H73.4099V56.552ZM1.2 105H3.024V97.384L6.432 105H7.696L11.088 97.384V105H12.912V93.88H10.96L7.072 102.6L3.168 93.88H1.2V105ZM18.7814 102.904L16.3014 96.184H14.2694L17.7414 104.856L15.9494 109.144H17.8374L23.2454 96.184H21.3574L18.7814 102.904ZM31.0341 105.016L33.0821 105L35.5621 96.584L37.8981 105H39.9621L43.2581 93.88H41.3061L38.9861 102.888L36.6661 93.88H34.6181L32.1221 102.936L29.8181 93.88H27.8821L31.0341 105.016ZM44.7625 105H46.5865V96.184H44.7625V105ZM45.6905 95.016C46.3305 95.016 46.8425 94.504 46.8425 93.848C46.8425 93.192 46.3305 92.68 45.6905 92.68C45.0345 92.68 44.5225 93.192 44.5225 93.848C44.5225 94.504 45.0345 95.016 45.6905 95.016ZM55.5573 102.536C55.4613 99.352 50.4853 100.344 50.4853 98.568C50.4853 97.976 50.9973 97.576 51.9733 97.576C52.9653 97.576 53.5573 98.104 53.6213 98.872H55.4453C55.3493 97.112 54.0373 96.04 52.0373 96.04C49.9573 96.04 48.6453 97.176 48.6453 98.584C48.6453 101.816 53.7653 100.824 53.7653 102.552C53.7653 103.16 53.2053 103.608 52.1493 103.608C51.1413 103.608 50.4533 103.016 50.3893 102.296H48.5013C48.5813 103.896 50.0693 105.144 52.1813 105.144C54.2613 105.144 55.5573 104.024 55.5573 102.536ZM57.5281 105H59.3521V100.072C59.3521 98.456 60.2321 97.624 61.5761 97.624C62.9041 97.624 63.7841 98.456 63.7841 100.072V105H65.5921V99.8C65.5921 97.336 64.0561 96.04 62.0881 96.04C60.9521 96.04 59.9601 96.472 59.3521 97.208V93.16H57.5281V105ZM67.9188 105H69.7428V93.16H67.9188V105ZM72.1375 105H73.9615V96.184H72.1375V105ZM73.0655 95.016C73.7055 95.016 74.2175 94.504 74.2175 93.848C74.2175 93.192 73.7055 92.68 73.0655 92.68C72.4095 92.68 71.8975 93.192 71.8975 93.848C71.8975 94.504 72.4095 95.016 73.0655 95.016ZM82.9323 102.536C82.8363 99.352 77.8603 100.344 77.8603 98.568C77.8603 97.976 78.3723 97.576 79.3483 97.576C80.3403 97.576 80.9323 98.104 80.9963 98.872H82.8203C82.7243 97.112 81.4123 96.04 79.4123 96.04C77.3323 96.04 76.0203 97.176 76.0203 98.584C76.0203 101.816 81.1403 100.824 81.1403 102.552C81.1403 103.16 80.5803 103.608 79.5243 103.608C78.5163 103.608 77.8283 103.016 77.7643 102.296H75.8763C75.9563 103.896 77.4443 105.144 79.5563 105.144C81.6363 105.144 82.9323 104.024 82.9323 102.536ZM85.1911 102.552C85.1911 104.344 86.1671 105 87.7351 105H89.1751V103.48H88.0551C87.2871 103.48 87.0311 103.208 87.0311 102.552V97.672H89.1751V96.184H87.0311V93.992H85.1911V96.184H84.1511V97.672H85.1911V102.552ZM0.624 141.368H3.6V151H5.424V141.368H8.384V139.88H0.624V141.368ZM12.0553 146.36C12.0553 144.488 12.8873 143.928 14.2313 143.928H14.6953V142.04C13.4473 142.04 12.5673 142.584 12.0553 143.464V142.184H10.2313V151H12.0553V146.36ZM15.7639 146.552C15.7639 149.272 17.6039 151.144 19.8919 151.144C21.3639 151.144 22.4199 150.44 22.9799 149.688V151H24.8199V142.184H22.9799V143.464C22.4359 142.744 21.4119 142.04 19.9239 142.04C17.6039 142.04 15.7639 143.832 15.7639 146.552ZM22.9799 146.584C22.9799 148.488 21.6839 149.56 20.3079 149.56C18.9479 149.56 17.6359 148.456 17.6359 146.552C17.6359 144.648 18.9479 143.624 20.3079 143.624C21.6839 143.624 22.9799 144.696 22.9799 146.584ZM26.6076 146.584C26.6076 149.352 28.3996 151.144 30.9276 151.144C33.0876 151.144 34.4956 149.944 34.9916 148.216H33.0236C32.6876 149.128 32.0156 149.608 30.9276 149.608C29.4556 149.608 28.4796 148.52 28.4796 146.584C28.4796 144.664 29.4556 143.576 30.9276 143.576C32.0156 143.576 32.7196 144.12 33.0236 144.968H34.9916C34.4956 143.112 33.0876 142.04 30.9276 142.04C28.3996 142.04 26.6076 143.832 26.6076 146.584ZM36.8094 151H38.6334V147.208L41.8974 151H44.3614L40.2974 146.6L44.3614 142.184H41.8334L38.6334 146.04V139.16H36.8094V151ZM49.825 151H51.649V143.384L55.057 151H56.321L59.713 143.384V151H61.537V139.88H59.585L55.697 148.6L51.793 139.88H49.825V151ZM67.4064 148.904L64.9264 142.184H62.8944L66.3664 150.856L64.5744 155.144H66.4624L71.8704 142.184H69.9824L67.4064 148.904ZM88.1551 145.416C88.1551 142.088 85.6431 139.736 82.4751 139.736C79.3391 139.736 76.7951 142.088 76.7951 145.416C76.7951 148.76 79.3391 151.112 82.4751 151.112C85.6431 151.112 88.1551 148.76 88.1551 145.416ZM78.6671 145.416C78.6671 142.904 80.2671 141.336 82.4751 141.336C84.6831 141.336 86.2831 142.904 86.2831 145.416C86.2831 147.928 84.6831 149.528 82.4751 149.528C80.2671 149.528 78.6671 147.928 78.6671 145.416ZM91.774 146.36C91.774 144.488 92.606 143.928 93.95 143.928H94.414V142.04C93.166 142.04 92.286 142.584 91.774 143.464V142.184H89.95V151H91.774V146.36ZM95.4826 146.552C95.4826 149.272 97.3226 151.144 99.6426 151.144C101.083 151.144 102.139 150.472 102.699 149.672V151H104.539V139.16H102.699V143.416C102.027 142.584 100.811 142.04 99.6586 142.04C97.3226 142.04 95.4826 143.832 95.4826 146.552ZM102.699 146.584C102.699 148.488 101.403 149.56 100.027 149.56C98.6666 149.56 97.3546 148.456 97.3546 146.552C97.3546 144.648 98.6666 143.624 100.027 143.624C101.403 143.624 102.699 144.696 102.699 146.584ZM110.646 143.576C112.006 143.576 113.078 144.44 113.11 145.8H108.23C108.422 144.408 109.414 143.576 110.646 143.576ZM114.774 148.376H112.806C112.47 149.064 111.846 149.608 110.726 149.608C109.382 149.608 108.342 148.728 108.214 147.272H114.95C114.998 146.968 115.014 146.68 115.014 146.376C115.014 143.784 113.238 142.04 110.726 142.04C108.118 142.04 106.326 143.816 106.326 146.584C106.326 149.352 108.198 151.144 110.726 151.144C112.886 151.144 114.278 149.912 114.774 148.376ZM118.633 146.36C118.633 144.488 119.465 143.928 120.809 143.928H121.273V142.04C120.025 142.04 119.145 142.584 118.633 143.464V142.184H116.809V151H118.633V146.36ZM8.256 197H10.08V185.88H8.256V190.648H3.024V185.88H1.2V197H3.024V192.136H8.256V197ZM16.1933 189.576C17.5533 189.576 18.6253 190.44 18.6573 191.8H13.7773C13.9693 190.408 14.9613 189.576 16.1933 189.576ZM20.3212 194.376H18.3533C18.0173 195.064 17.3933 195.608 16.2733 195.608C14.9293 195.608 13.8893 194.728 13.7613 193.272H20.4973C20.5453 192.968 20.5613 192.68 20.5613 192.376C20.5613 189.784 18.7853 188.04 16.2733 188.04C13.6653 188.04 11.8733 189.816 11.8733 192.584C11.8733 195.352 13.7453 197.144 16.2733 197.144C18.4333 197.144 19.8253 195.912 20.3212 194.376ZM22.3563 197H24.1803V185.16H22.3563V197ZM28.399 189.48V188.184H26.575V201.192H28.399V195.72C28.975 196.408 30.015 197.144 31.471 197.144C33.791 197.144 35.615 195.272 35.615 192.552C35.615 189.832 33.791 188.04 31.471 188.04C30.031 188.04 28.959 188.744 28.399 189.48ZM33.759 192.552C33.759 194.456 32.447 195.56 31.071 195.56C29.711 195.56 28.399 194.488 28.399 192.584C28.399 190.696 29.711 189.624 31.071 189.624C32.447 189.624 33.759 190.648 33.759 192.552Z" fill="#666666"/>
</svg>
