<svg width="509" height="481" viewBox="0 0 509 481" fill="none" xmlns="http://www.w3.org/2000/svg">
<path d="M88.5356 478.453C143.331 423.658 192.78 473.107 247.576 418.311C302.371 363.516 252.922 314.067 307.494 259.495C362.29 204.699 411.738 254.148 466.31 199.576C521.106 144.781 471.657 95.3319 526.453 40.5364M45.2678 435.185C100.063 380.39 149.512 429.839 204.308 375.043C259.103 320.248 209.654 270.799 264.226 216.227C319.022 161.431 368.471 210.88 423.043 156.308C477.838 101.513 428.389 52.064 483.185 -2.73158M2.00085 391.917C56.7964 337.121 106.245 386.57 161.041 331.775C215.836 276.979 166.387 227.53 220.959 172.958C275.755 118.163 325.204 167.612 379.776 113.04C434.571 58.2444 385.122 8.79553 439.918 -46" stroke="url(#paint0_linear_1_26)" stroke-width="4" stroke-miterlimit="10" stroke-linecap="round" stroke-linejoin="round"/>
<defs>
<linearGradient id="paint0_linear_1_26" x1="489.5" y1="1.99985" x2="107" y2="409" gradientUnits="userSpaceOnUse">
<stop stop-color="#05A42C" stop-opacity="0.75"/>
<stop offset="1" stop-color="#05A42C" stop-opacity="0"/>
</linearGradient>
</defs>
</svg>
